%TF.GenerationSoftware,KiCad,Pcbnew,8.0.1*%
%TF.CreationDate,2024-04-24T10:41:03+02:00*%
%TF.ProjectId,PCB,5043422e-6b69-4636-9164-5f7063625858,v0.1*%
%TF.SameCoordinates,Original*%
%TF.FileFunction,Legend,Top*%
%TF.FilePolarity,Positive*%
%FSLAX46Y46*%
G04 Gerber Fmt 4.6, Leading zero omitted, Abs format (unit mm)*
G04 Created by KiCad (PCBNEW 8.0.1) date 2024-04-24 10:41:03*
%MOMM*%
%LPD*%
G01*
G04 APERTURE LIST*
G04 Aperture macros list*
%AMRoundRect*
0 Rectangle with rounded corners*
0 $1 Rounding radius*
0 $2 $3 $4 $5 $6 $7 $8 $9 X,Y pos of 4 corners*
0 Add a 4 corners polygon primitive as box body*
4,1,4,$2,$3,$4,$5,$6,$7,$8,$9,$2,$3,0*
0 Add four circle primitives for the rounded corners*
1,1,$1+$1,$2,$3*
1,1,$1+$1,$4,$5*
1,1,$1+$1,$6,$7*
1,1,$1+$1,$8,$9*
0 Add four rect primitives between the rounded corners*
20,1,$1+$1,$2,$3,$4,$5,0*
20,1,$1+$1,$4,$5,$6,$7,0*
20,1,$1+$1,$6,$7,$8,$9,0*
20,1,$1+$1,$8,$9,$2,$3,0*%
G04 Aperture macros list end*
%ADD10C,0.150000*%
%ADD11C,0.127000*%
%ADD12C,0.200000*%
%ADD13C,0.120000*%
%ADD14C,1.712000*%
%ADD15C,3.200000*%
%ADD16C,2.134000*%
%ADD17RoundRect,0.102000X-0.965000X0.965000X-0.965000X-0.965000X0.965000X-0.965000X0.965000X0.965000X0*%
%ADD18RoundRect,0.250000X-0.400000X-0.625000X0.400000X-0.625000X0.400000X0.625000X-0.400000X0.625000X0*%
%ADD19R,2.000000X2.000000*%
%ADD20C,2.000000*%
%ADD21RoundRect,0.250000X0.400000X0.625000X-0.400000X0.625000X-0.400000X-0.625000X0.400000X-0.625000X0*%
%ADD22C,1.404000*%
%ADD23RoundRect,0.102000X-0.600000X-0.600000X0.600000X-0.600000X0.600000X0.600000X-0.600000X0.600000X0*%
%ADD24R,1.800000X1.800000*%
%ADD25C,1.800000*%
%ADD26R,1.524000X1.524000*%
%ADD27C,1.524000*%
G04 APERTURE END LIST*
D10*
X157686779Y-139189987D02*
X157686779Y-138189987D01*
X157686779Y-138189987D02*
X158020112Y-138904272D01*
X158020112Y-138904272D02*
X158353445Y-138189987D01*
X158353445Y-138189987D02*
X158353445Y-139189987D01*
X159210588Y-139142368D02*
X159115350Y-139189987D01*
X159115350Y-139189987D02*
X158924874Y-139189987D01*
X158924874Y-139189987D02*
X158829636Y-139142368D01*
X158829636Y-139142368D02*
X158782017Y-139047129D01*
X158782017Y-139047129D02*
X158782017Y-138666177D01*
X158782017Y-138666177D02*
X158829636Y-138570939D01*
X158829636Y-138570939D02*
X158924874Y-138523320D01*
X158924874Y-138523320D02*
X159115350Y-138523320D01*
X159115350Y-138523320D02*
X159210588Y-138570939D01*
X159210588Y-138570939D02*
X159258207Y-138666177D01*
X159258207Y-138666177D02*
X159258207Y-138761415D01*
X159258207Y-138761415D02*
X158782017Y-138856653D01*
X160067731Y-139142368D02*
X159972493Y-139189987D01*
X159972493Y-139189987D02*
X159782017Y-139189987D01*
X159782017Y-139189987D02*
X159686779Y-139142368D01*
X159686779Y-139142368D02*
X159639160Y-139047129D01*
X159639160Y-139047129D02*
X159639160Y-138666177D01*
X159639160Y-138666177D02*
X159686779Y-138570939D01*
X159686779Y-138570939D02*
X159782017Y-138523320D01*
X159782017Y-138523320D02*
X159972493Y-138523320D01*
X159972493Y-138523320D02*
X160067731Y-138570939D01*
X160067731Y-138570939D02*
X160115350Y-138666177D01*
X160115350Y-138666177D02*
X160115350Y-138761415D01*
X160115350Y-138761415D02*
X159639160Y-138856653D01*
X160401065Y-138523320D02*
X160782017Y-138523320D01*
X160543922Y-138189987D02*
X160543922Y-139047129D01*
X160543922Y-139047129D02*
X160591541Y-139142368D01*
X160591541Y-139142368D02*
X160686779Y-139189987D01*
X160686779Y-139189987D02*
X160782017Y-139189987D01*
X161115351Y-139189987D02*
X161115351Y-138523320D01*
X161115351Y-138189987D02*
X161067732Y-138237606D01*
X161067732Y-138237606D02*
X161115351Y-138285225D01*
X161115351Y-138285225D02*
X161162970Y-138237606D01*
X161162970Y-138237606D02*
X161115351Y-138189987D01*
X161115351Y-138189987D02*
X161115351Y-138285225D01*
X161591541Y-138523320D02*
X161591541Y-139189987D01*
X161591541Y-138618558D02*
X161639160Y-138570939D01*
X161639160Y-138570939D02*
X161734398Y-138523320D01*
X161734398Y-138523320D02*
X161877255Y-138523320D01*
X161877255Y-138523320D02*
X161972493Y-138570939D01*
X161972493Y-138570939D02*
X162020112Y-138666177D01*
X162020112Y-138666177D02*
X162020112Y-139189987D01*
X162924874Y-138523320D02*
X162924874Y-139332844D01*
X162924874Y-139332844D02*
X162877255Y-139428082D01*
X162877255Y-139428082D02*
X162829636Y-139475701D01*
X162829636Y-139475701D02*
X162734398Y-139523320D01*
X162734398Y-139523320D02*
X162591541Y-139523320D01*
X162591541Y-139523320D02*
X162496303Y-139475701D01*
X162924874Y-139142368D02*
X162829636Y-139189987D01*
X162829636Y-139189987D02*
X162639160Y-139189987D01*
X162639160Y-139189987D02*
X162543922Y-139142368D01*
X162543922Y-139142368D02*
X162496303Y-139094748D01*
X162496303Y-139094748D02*
X162448684Y-138999510D01*
X162448684Y-138999510D02*
X162448684Y-138713796D01*
X162448684Y-138713796D02*
X162496303Y-138618558D01*
X162496303Y-138618558D02*
X162543922Y-138570939D01*
X162543922Y-138570939D02*
X162639160Y-138523320D01*
X162639160Y-138523320D02*
X162829636Y-138523320D01*
X162829636Y-138523320D02*
X162924874Y-138570939D01*
X164591541Y-139189987D02*
X164591541Y-138189987D01*
X164591541Y-139142368D02*
X164496303Y-139189987D01*
X164496303Y-139189987D02*
X164305827Y-139189987D01*
X164305827Y-139189987D02*
X164210589Y-139142368D01*
X164210589Y-139142368D02*
X164162970Y-139094748D01*
X164162970Y-139094748D02*
X164115351Y-138999510D01*
X164115351Y-138999510D02*
X164115351Y-138713796D01*
X164115351Y-138713796D02*
X164162970Y-138618558D01*
X164162970Y-138618558D02*
X164210589Y-138570939D01*
X164210589Y-138570939D02*
X164305827Y-138523320D01*
X164305827Y-138523320D02*
X164496303Y-138523320D01*
X164496303Y-138523320D02*
X164591541Y-138570939D01*
X165067732Y-139189987D02*
X165067732Y-138523320D01*
X165067732Y-138189987D02*
X165020113Y-138237606D01*
X165020113Y-138237606D02*
X165067732Y-138285225D01*
X165067732Y-138285225D02*
X165115351Y-138237606D01*
X165115351Y-138237606D02*
X165067732Y-138189987D01*
X165067732Y-138189987D02*
X165067732Y-138285225D01*
X165496303Y-139142368D02*
X165591541Y-139189987D01*
X165591541Y-139189987D02*
X165782017Y-139189987D01*
X165782017Y-139189987D02*
X165877255Y-139142368D01*
X165877255Y-139142368D02*
X165924874Y-139047129D01*
X165924874Y-139047129D02*
X165924874Y-138999510D01*
X165924874Y-138999510D02*
X165877255Y-138904272D01*
X165877255Y-138904272D02*
X165782017Y-138856653D01*
X165782017Y-138856653D02*
X165639160Y-138856653D01*
X165639160Y-138856653D02*
X165543922Y-138809034D01*
X165543922Y-138809034D02*
X165496303Y-138713796D01*
X165496303Y-138713796D02*
X165496303Y-138666177D01*
X165496303Y-138666177D02*
X165543922Y-138570939D01*
X165543922Y-138570939D02*
X165639160Y-138523320D01*
X165639160Y-138523320D02*
X165782017Y-138523320D01*
X165782017Y-138523320D02*
X165877255Y-138570939D01*
X166353446Y-138523320D02*
X166353446Y-139523320D01*
X166353446Y-138570939D02*
X166448684Y-138523320D01*
X166448684Y-138523320D02*
X166639160Y-138523320D01*
X166639160Y-138523320D02*
X166734398Y-138570939D01*
X166734398Y-138570939D02*
X166782017Y-138618558D01*
X166782017Y-138618558D02*
X166829636Y-138713796D01*
X166829636Y-138713796D02*
X166829636Y-138999510D01*
X166829636Y-138999510D02*
X166782017Y-139094748D01*
X166782017Y-139094748D02*
X166734398Y-139142368D01*
X166734398Y-139142368D02*
X166639160Y-139189987D01*
X166639160Y-139189987D02*
X166448684Y-139189987D01*
X166448684Y-139189987D02*
X166353446Y-139142368D01*
X167401065Y-139189987D02*
X167305827Y-139142368D01*
X167305827Y-139142368D02*
X167258208Y-139047129D01*
X167258208Y-139047129D02*
X167258208Y-138189987D01*
X168210589Y-139189987D02*
X168210589Y-138666177D01*
X168210589Y-138666177D02*
X168162970Y-138570939D01*
X168162970Y-138570939D02*
X168067732Y-138523320D01*
X168067732Y-138523320D02*
X167877256Y-138523320D01*
X167877256Y-138523320D02*
X167782018Y-138570939D01*
X168210589Y-139142368D02*
X168115351Y-139189987D01*
X168115351Y-139189987D02*
X167877256Y-139189987D01*
X167877256Y-139189987D02*
X167782018Y-139142368D01*
X167782018Y-139142368D02*
X167734399Y-139047129D01*
X167734399Y-139047129D02*
X167734399Y-138951891D01*
X167734399Y-138951891D02*
X167782018Y-138856653D01*
X167782018Y-138856653D02*
X167877256Y-138809034D01*
X167877256Y-138809034D02*
X168115351Y-138809034D01*
X168115351Y-138809034D02*
X168210589Y-138761415D01*
X168591542Y-138523320D02*
X168829637Y-139189987D01*
X169067732Y-138523320D02*
X168829637Y-139189987D01*
X168829637Y-139189987D02*
X168734399Y-139428082D01*
X168734399Y-139428082D02*
X168686780Y-139475701D01*
X168686780Y-139475701D02*
X168591542Y-139523320D01*
X170115352Y-138523320D02*
X170353447Y-139189987D01*
X170353447Y-139189987D02*
X170591542Y-138523320D01*
X171496304Y-139189987D02*
X170924876Y-139189987D01*
X171210590Y-139189987D02*
X171210590Y-138189987D01*
X171210590Y-138189987D02*
X171115352Y-138332844D01*
X171115352Y-138332844D02*
X171020114Y-138428082D01*
X171020114Y-138428082D02*
X170924876Y-138475701D01*
X171924876Y-139094748D02*
X171972495Y-139142368D01*
X171972495Y-139142368D02*
X171924876Y-139189987D01*
X171924876Y-139189987D02*
X171877257Y-139142368D01*
X171877257Y-139142368D02*
X171924876Y-139094748D01*
X171924876Y-139094748D02*
X171924876Y-139189987D01*
X172591542Y-138189987D02*
X172686780Y-138189987D01*
X172686780Y-138189987D02*
X172782018Y-138237606D01*
X172782018Y-138237606D02*
X172829637Y-138285225D01*
X172829637Y-138285225D02*
X172877256Y-138380463D01*
X172877256Y-138380463D02*
X172924875Y-138570939D01*
X172924875Y-138570939D02*
X172924875Y-138809034D01*
X172924875Y-138809034D02*
X172877256Y-138999510D01*
X172877256Y-138999510D02*
X172829637Y-139094748D01*
X172829637Y-139094748D02*
X172782018Y-139142368D01*
X172782018Y-139142368D02*
X172686780Y-139189987D01*
X172686780Y-139189987D02*
X172591542Y-139189987D01*
X172591542Y-139189987D02*
X172496304Y-139142368D01*
X172496304Y-139142368D02*
X172448685Y-139094748D01*
X172448685Y-139094748D02*
X172401066Y-138999510D01*
X172401066Y-138999510D02*
X172353447Y-138809034D01*
X172353447Y-138809034D02*
X172353447Y-138570939D01*
X172353447Y-138570939D02*
X172401066Y-138380463D01*
X172401066Y-138380463D02*
X172448685Y-138285225D01*
X172448685Y-138285225D02*
X172496304Y-138237606D01*
X172496304Y-138237606D02*
X172591542Y-138189987D01*
X157686779Y-140799931D02*
X157686779Y-139799931D01*
X158162969Y-140276121D02*
X158496302Y-140276121D01*
X158639159Y-140799931D02*
X158162969Y-140799931D01*
X158162969Y-140799931D02*
X158162969Y-139799931D01*
X158162969Y-139799931D02*
X158639159Y-139799931D01*
X159591540Y-140799931D02*
X159020112Y-140799931D01*
X159305826Y-140799931D02*
X159305826Y-139799931D01*
X159305826Y-139799931D02*
X159210588Y-139942788D01*
X159210588Y-139942788D02*
X159115350Y-140038026D01*
X159115350Y-140038026D02*
X159020112Y-140085645D01*
X159924874Y-139799931D02*
X160543921Y-139799931D01*
X160543921Y-139799931D02*
X160210588Y-140180883D01*
X160210588Y-140180883D02*
X160353445Y-140180883D01*
X160353445Y-140180883D02*
X160448683Y-140228502D01*
X160448683Y-140228502D02*
X160496302Y-140276121D01*
X160496302Y-140276121D02*
X160543921Y-140371359D01*
X160543921Y-140371359D02*
X160543921Y-140609454D01*
X160543921Y-140609454D02*
X160496302Y-140704692D01*
X160496302Y-140704692D02*
X160448683Y-140752312D01*
X160448683Y-140752312D02*
X160353445Y-140799931D01*
X160353445Y-140799931D02*
X160067731Y-140799931D01*
X160067731Y-140799931D02*
X159972493Y-140752312D01*
X159972493Y-140752312D02*
X159924874Y-140704692D01*
X160877255Y-139799931D02*
X161496302Y-139799931D01*
X161496302Y-139799931D02*
X161162969Y-140180883D01*
X161162969Y-140180883D02*
X161305826Y-140180883D01*
X161305826Y-140180883D02*
X161401064Y-140228502D01*
X161401064Y-140228502D02*
X161448683Y-140276121D01*
X161448683Y-140276121D02*
X161496302Y-140371359D01*
X161496302Y-140371359D02*
X161496302Y-140609454D01*
X161496302Y-140609454D02*
X161448683Y-140704692D01*
X161448683Y-140704692D02*
X161401064Y-140752312D01*
X161401064Y-140752312D02*
X161305826Y-140799931D01*
X161305826Y-140799931D02*
X161020112Y-140799931D01*
X161020112Y-140799931D02*
X160924874Y-140752312D01*
X160924874Y-140752312D02*
X160877255Y-140704692D01*
X161877255Y-139895169D02*
X161924874Y-139847550D01*
X161924874Y-139847550D02*
X162020112Y-139799931D01*
X162020112Y-139799931D02*
X162258207Y-139799931D01*
X162258207Y-139799931D02*
X162353445Y-139847550D01*
X162353445Y-139847550D02*
X162401064Y-139895169D01*
X162401064Y-139895169D02*
X162448683Y-139990407D01*
X162448683Y-139990407D02*
X162448683Y-140085645D01*
X162448683Y-140085645D02*
X162401064Y-140228502D01*
X162401064Y-140228502D02*
X161829636Y-140799931D01*
X161829636Y-140799931D02*
X162448683Y-140799931D01*
X163591540Y-139752312D02*
X162734398Y-141038026D01*
X163924874Y-140799931D02*
X163924874Y-139799931D01*
X164401064Y-140799931D02*
X164401064Y-139799931D01*
X165401063Y-140799931D02*
X164829635Y-140799931D01*
X165115349Y-140799931D02*
X165115349Y-139799931D01*
X165115349Y-139799931D02*
X165020111Y-139942788D01*
X165020111Y-139942788D02*
X164924873Y-140038026D01*
X164924873Y-140038026D02*
X164829635Y-140085645D01*
X165734397Y-139799931D02*
X166353444Y-139799931D01*
X166353444Y-139799931D02*
X166020111Y-140180883D01*
X166020111Y-140180883D02*
X166162968Y-140180883D01*
X166162968Y-140180883D02*
X166258206Y-140228502D01*
X166258206Y-140228502D02*
X166305825Y-140276121D01*
X166305825Y-140276121D02*
X166353444Y-140371359D01*
X166353444Y-140371359D02*
X166353444Y-140609454D01*
X166353444Y-140609454D02*
X166305825Y-140704692D01*
X166305825Y-140704692D02*
X166258206Y-140752312D01*
X166258206Y-140752312D02*
X166162968Y-140799931D01*
X166162968Y-140799931D02*
X165877254Y-140799931D01*
X165877254Y-140799931D02*
X165782016Y-140752312D01*
X165782016Y-140752312D02*
X165734397Y-140704692D01*
X166972492Y-139799931D02*
X167067730Y-139799931D01*
X167067730Y-139799931D02*
X167162968Y-139847550D01*
X167162968Y-139847550D02*
X167210587Y-139895169D01*
X167210587Y-139895169D02*
X167258206Y-139990407D01*
X167258206Y-139990407D02*
X167305825Y-140180883D01*
X167305825Y-140180883D02*
X167305825Y-140418978D01*
X167305825Y-140418978D02*
X167258206Y-140609454D01*
X167258206Y-140609454D02*
X167210587Y-140704692D01*
X167210587Y-140704692D02*
X167162968Y-140752312D01*
X167162968Y-140752312D02*
X167067730Y-140799931D01*
X167067730Y-140799931D02*
X166972492Y-140799931D01*
X166972492Y-140799931D02*
X166877254Y-140752312D01*
X166877254Y-140752312D02*
X166829635Y-140704692D01*
X166829635Y-140704692D02*
X166782016Y-140609454D01*
X166782016Y-140609454D02*
X166734397Y-140418978D01*
X166734397Y-140418978D02*
X166734397Y-140180883D01*
X166734397Y-140180883D02*
X166782016Y-139990407D01*
X166782016Y-139990407D02*
X166829635Y-139895169D01*
X166829635Y-139895169D02*
X166877254Y-139847550D01*
X166877254Y-139847550D02*
X166972492Y-139799931D01*
X167686778Y-139895169D02*
X167734397Y-139847550D01*
X167734397Y-139847550D02*
X167829635Y-139799931D01*
X167829635Y-139799931D02*
X168067730Y-139799931D01*
X168067730Y-139799931D02*
X168162968Y-139847550D01*
X168162968Y-139847550D02*
X168210587Y-139895169D01*
X168210587Y-139895169D02*
X168258206Y-139990407D01*
X168258206Y-139990407D02*
X168258206Y-140085645D01*
X168258206Y-140085645D02*
X168210587Y-140228502D01*
X168210587Y-140228502D02*
X167639159Y-140799931D01*
X167639159Y-140799931D02*
X168258206Y-140799931D01*
X157686779Y-142409875D02*
X157686779Y-141409875D01*
X158258207Y-142409875D02*
X157829636Y-141838446D01*
X158258207Y-141409875D02*
X157686779Y-141981303D01*
X158543922Y-141409875D02*
X159115350Y-141409875D01*
X158829636Y-142409875D02*
X158829636Y-141409875D01*
X159448684Y-142409875D02*
X159448684Y-141409875D01*
X159448684Y-141886065D02*
X160020112Y-141886065D01*
X160020112Y-142409875D02*
X160020112Y-141409875D01*
X161829636Y-142314636D02*
X161782017Y-142362256D01*
X161782017Y-142362256D02*
X161639160Y-142409875D01*
X161639160Y-142409875D02*
X161543922Y-142409875D01*
X161543922Y-142409875D02*
X161401065Y-142362256D01*
X161401065Y-142362256D02*
X161305827Y-142267017D01*
X161305827Y-142267017D02*
X161258208Y-142171779D01*
X161258208Y-142171779D02*
X161210589Y-141981303D01*
X161210589Y-141981303D02*
X161210589Y-141838446D01*
X161210589Y-141838446D02*
X161258208Y-141647970D01*
X161258208Y-141647970D02*
X161305827Y-141552732D01*
X161305827Y-141552732D02*
X161401065Y-141457494D01*
X161401065Y-141457494D02*
X161543922Y-141409875D01*
X161543922Y-141409875D02*
X161639160Y-141409875D01*
X161639160Y-141409875D02*
X161782017Y-141457494D01*
X161782017Y-141457494D02*
X161829636Y-141505113D01*
X162258208Y-142409875D02*
X162258208Y-141409875D01*
X162686779Y-142409875D02*
X162686779Y-141886065D01*
X162686779Y-141886065D02*
X162639160Y-141790827D01*
X162639160Y-141790827D02*
X162543922Y-141743208D01*
X162543922Y-141743208D02*
X162401065Y-141743208D01*
X162401065Y-141743208D02*
X162305827Y-141790827D01*
X162305827Y-141790827D02*
X162258208Y-141838446D01*
X163162970Y-142409875D02*
X163162970Y-141743208D01*
X163162970Y-141933684D02*
X163210589Y-141838446D01*
X163210589Y-141838446D02*
X163258208Y-141790827D01*
X163258208Y-141790827D02*
X163353446Y-141743208D01*
X163353446Y-141743208D02*
X163448684Y-141743208D01*
X163782018Y-142409875D02*
X163782018Y-141743208D01*
X163782018Y-141409875D02*
X163734399Y-141457494D01*
X163734399Y-141457494D02*
X163782018Y-141505113D01*
X163782018Y-141505113D02*
X163829637Y-141457494D01*
X163829637Y-141457494D02*
X163782018Y-141409875D01*
X163782018Y-141409875D02*
X163782018Y-141505113D01*
X164210589Y-142362256D02*
X164305827Y-142409875D01*
X164305827Y-142409875D02*
X164496303Y-142409875D01*
X164496303Y-142409875D02*
X164591541Y-142362256D01*
X164591541Y-142362256D02*
X164639160Y-142267017D01*
X164639160Y-142267017D02*
X164639160Y-142219398D01*
X164639160Y-142219398D02*
X164591541Y-142124160D01*
X164591541Y-142124160D02*
X164496303Y-142076541D01*
X164496303Y-142076541D02*
X164353446Y-142076541D01*
X164353446Y-142076541D02*
X164258208Y-142028922D01*
X164258208Y-142028922D02*
X164210589Y-141933684D01*
X164210589Y-141933684D02*
X164210589Y-141886065D01*
X164210589Y-141886065D02*
X164258208Y-141790827D01*
X164258208Y-141790827D02*
X164353446Y-141743208D01*
X164353446Y-141743208D02*
X164496303Y-141743208D01*
X164496303Y-141743208D02*
X164591541Y-141790827D01*
X164924875Y-141743208D02*
X165305827Y-141743208D01*
X165067732Y-141409875D02*
X165067732Y-142267017D01*
X165067732Y-142267017D02*
X165115351Y-142362256D01*
X165115351Y-142362256D02*
X165210589Y-142409875D01*
X165210589Y-142409875D02*
X165305827Y-142409875D01*
X165782018Y-142409875D02*
X165686780Y-142362256D01*
X165686780Y-142362256D02*
X165639161Y-142314636D01*
X165639161Y-142314636D02*
X165591542Y-142219398D01*
X165591542Y-142219398D02*
X165591542Y-141933684D01*
X165591542Y-141933684D02*
X165639161Y-141838446D01*
X165639161Y-141838446D02*
X165686780Y-141790827D01*
X165686780Y-141790827D02*
X165782018Y-141743208D01*
X165782018Y-141743208D02*
X165924875Y-141743208D01*
X165924875Y-141743208D02*
X166020113Y-141790827D01*
X166020113Y-141790827D02*
X166067732Y-141838446D01*
X166067732Y-141838446D02*
X166115351Y-141933684D01*
X166115351Y-141933684D02*
X166115351Y-142219398D01*
X166115351Y-142219398D02*
X166067732Y-142314636D01*
X166067732Y-142314636D02*
X166020113Y-142362256D01*
X166020113Y-142362256D02*
X165924875Y-142409875D01*
X165924875Y-142409875D02*
X165782018Y-142409875D01*
X166401066Y-141743208D02*
X166782018Y-141743208D01*
X166543923Y-142409875D02*
X166543923Y-141552732D01*
X166543923Y-141552732D02*
X166591542Y-141457494D01*
X166591542Y-141457494D02*
X166686780Y-141409875D01*
X166686780Y-141409875D02*
X166782018Y-141409875D01*
X166972495Y-141743208D02*
X167353447Y-141743208D01*
X167115352Y-142409875D02*
X167115352Y-141552732D01*
X167115352Y-141552732D02*
X167162971Y-141457494D01*
X167162971Y-141457494D02*
X167258209Y-141409875D01*
X167258209Y-141409875D02*
X167353447Y-141409875D01*
X168067733Y-142362256D02*
X167972495Y-142409875D01*
X167972495Y-142409875D02*
X167782019Y-142409875D01*
X167782019Y-142409875D02*
X167686781Y-142362256D01*
X167686781Y-142362256D02*
X167639162Y-142267017D01*
X167639162Y-142267017D02*
X167639162Y-141886065D01*
X167639162Y-141886065D02*
X167686781Y-141790827D01*
X167686781Y-141790827D02*
X167782019Y-141743208D01*
X167782019Y-141743208D02*
X167972495Y-141743208D01*
X167972495Y-141743208D02*
X168067733Y-141790827D01*
X168067733Y-141790827D02*
X168115352Y-141886065D01*
X168115352Y-141886065D02*
X168115352Y-141981303D01*
X168115352Y-141981303D02*
X167639162Y-142076541D01*
X168543924Y-142409875D02*
X168543924Y-141743208D01*
X168543924Y-141933684D02*
X168591543Y-141838446D01*
X168591543Y-141838446D02*
X168639162Y-141790827D01*
X168639162Y-141790827D02*
X168734400Y-141743208D01*
X168734400Y-141743208D02*
X168829638Y-141743208D01*
X170258210Y-141886065D02*
X169924877Y-141886065D01*
X169924877Y-142409875D02*
X169924877Y-141409875D01*
X169924877Y-141409875D02*
X170401067Y-141409875D01*
X170782020Y-142409875D02*
X170782020Y-141743208D01*
X170782020Y-141933684D02*
X170829639Y-141838446D01*
X170829639Y-141838446D02*
X170877258Y-141790827D01*
X170877258Y-141790827D02*
X170972496Y-141743208D01*
X170972496Y-141743208D02*
X171067734Y-141743208D01*
X171829639Y-142409875D02*
X171829639Y-141886065D01*
X171829639Y-141886065D02*
X171782020Y-141790827D01*
X171782020Y-141790827D02*
X171686782Y-141743208D01*
X171686782Y-141743208D02*
X171496306Y-141743208D01*
X171496306Y-141743208D02*
X171401068Y-141790827D01*
X171829639Y-142362256D02*
X171734401Y-142409875D01*
X171734401Y-142409875D02*
X171496306Y-142409875D01*
X171496306Y-142409875D02*
X171401068Y-142362256D01*
X171401068Y-142362256D02*
X171353449Y-142267017D01*
X171353449Y-142267017D02*
X171353449Y-142171779D01*
X171353449Y-142171779D02*
X171401068Y-142076541D01*
X171401068Y-142076541D02*
X171496306Y-142028922D01*
X171496306Y-142028922D02*
X171734401Y-142028922D01*
X171734401Y-142028922D02*
X171829639Y-141981303D01*
X172305830Y-141743208D02*
X172305830Y-142409875D01*
X172305830Y-141838446D02*
X172353449Y-141790827D01*
X172353449Y-141790827D02*
X172448687Y-141743208D01*
X172448687Y-141743208D02*
X172591544Y-141743208D01*
X172591544Y-141743208D02*
X172686782Y-141790827D01*
X172686782Y-141790827D02*
X172734401Y-141886065D01*
X172734401Y-141886065D02*
X172734401Y-142409875D01*
X173115354Y-141743208D02*
X173639163Y-141743208D01*
X173639163Y-141743208D02*
X173115354Y-142409875D01*
X173115354Y-142409875D02*
X173639163Y-142409875D01*
X174401068Y-142362256D02*
X174305830Y-142409875D01*
X174305830Y-142409875D02*
X174115354Y-142409875D01*
X174115354Y-142409875D02*
X174020116Y-142362256D01*
X174020116Y-142362256D02*
X173972497Y-142267017D01*
X173972497Y-142267017D02*
X173972497Y-141886065D01*
X173972497Y-141886065D02*
X174020116Y-141790827D01*
X174020116Y-141790827D02*
X174115354Y-141743208D01*
X174115354Y-141743208D02*
X174305830Y-141743208D01*
X174305830Y-141743208D02*
X174401068Y-141790827D01*
X174401068Y-141790827D02*
X174448687Y-141886065D01*
X174448687Y-141886065D02*
X174448687Y-141981303D01*
X174448687Y-141981303D02*
X173972497Y-142076541D01*
X174305830Y-141362256D02*
X174162973Y-141505113D01*
X174877259Y-141743208D02*
X174877259Y-142409875D01*
X174877259Y-141838446D02*
X174924878Y-141790827D01*
X174924878Y-141790827D02*
X175020116Y-141743208D01*
X175020116Y-141743208D02*
X175162973Y-141743208D01*
X175162973Y-141743208D02*
X175258211Y-141790827D01*
X175258211Y-141790827D02*
X175305830Y-141886065D01*
X175305830Y-141886065D02*
X175305830Y-142409875D01*
X157639160Y-143115057D02*
X157686779Y-143067438D01*
X157686779Y-143067438D02*
X157782017Y-143019819D01*
X157782017Y-143019819D02*
X158020112Y-143019819D01*
X158020112Y-143019819D02*
X158115350Y-143067438D01*
X158115350Y-143067438D02*
X158162969Y-143115057D01*
X158162969Y-143115057D02*
X158210588Y-143210295D01*
X158210588Y-143210295D02*
X158210588Y-143305533D01*
X158210588Y-143305533D02*
X158162969Y-143448390D01*
X158162969Y-143448390D02*
X157591541Y-144019819D01*
X157591541Y-144019819D02*
X158210588Y-144019819D01*
X158829636Y-143019819D02*
X158924874Y-143019819D01*
X158924874Y-143019819D02*
X159020112Y-143067438D01*
X159020112Y-143067438D02*
X159067731Y-143115057D01*
X159067731Y-143115057D02*
X159115350Y-143210295D01*
X159115350Y-143210295D02*
X159162969Y-143400771D01*
X159162969Y-143400771D02*
X159162969Y-143638866D01*
X159162969Y-143638866D02*
X159115350Y-143829342D01*
X159115350Y-143829342D02*
X159067731Y-143924580D01*
X159067731Y-143924580D02*
X159020112Y-143972200D01*
X159020112Y-143972200D02*
X158924874Y-144019819D01*
X158924874Y-144019819D02*
X158829636Y-144019819D01*
X158829636Y-144019819D02*
X158734398Y-143972200D01*
X158734398Y-143972200D02*
X158686779Y-143924580D01*
X158686779Y-143924580D02*
X158639160Y-143829342D01*
X158639160Y-143829342D02*
X158591541Y-143638866D01*
X158591541Y-143638866D02*
X158591541Y-143400771D01*
X158591541Y-143400771D02*
X158639160Y-143210295D01*
X158639160Y-143210295D02*
X158686779Y-143115057D01*
X158686779Y-143115057D02*
X158734398Y-143067438D01*
X158734398Y-143067438D02*
X158829636Y-143019819D01*
X159543922Y-143115057D02*
X159591541Y-143067438D01*
X159591541Y-143067438D02*
X159686779Y-143019819D01*
X159686779Y-143019819D02*
X159924874Y-143019819D01*
X159924874Y-143019819D02*
X160020112Y-143067438D01*
X160020112Y-143067438D02*
X160067731Y-143115057D01*
X160067731Y-143115057D02*
X160115350Y-143210295D01*
X160115350Y-143210295D02*
X160115350Y-143305533D01*
X160115350Y-143305533D02*
X160067731Y-143448390D01*
X160067731Y-143448390D02*
X159496303Y-144019819D01*
X159496303Y-144019819D02*
X160115350Y-144019819D01*
X160972493Y-143353152D02*
X160972493Y-144019819D01*
X160734398Y-142972200D02*
X160496303Y-143686485D01*
X160496303Y-143686485D02*
X161115350Y-143686485D01*
X161496303Y-143638866D02*
X162258208Y-143638866D01*
X162924874Y-143019819D02*
X163020112Y-143019819D01*
X163020112Y-143019819D02*
X163115350Y-143067438D01*
X163115350Y-143067438D02*
X163162969Y-143115057D01*
X163162969Y-143115057D02*
X163210588Y-143210295D01*
X163210588Y-143210295D02*
X163258207Y-143400771D01*
X163258207Y-143400771D02*
X163258207Y-143638866D01*
X163258207Y-143638866D02*
X163210588Y-143829342D01*
X163210588Y-143829342D02*
X163162969Y-143924580D01*
X163162969Y-143924580D02*
X163115350Y-143972200D01*
X163115350Y-143972200D02*
X163020112Y-144019819D01*
X163020112Y-144019819D02*
X162924874Y-144019819D01*
X162924874Y-144019819D02*
X162829636Y-143972200D01*
X162829636Y-143972200D02*
X162782017Y-143924580D01*
X162782017Y-143924580D02*
X162734398Y-143829342D01*
X162734398Y-143829342D02*
X162686779Y-143638866D01*
X162686779Y-143638866D02*
X162686779Y-143400771D01*
X162686779Y-143400771D02*
X162734398Y-143210295D01*
X162734398Y-143210295D02*
X162782017Y-143115057D01*
X162782017Y-143115057D02*
X162829636Y-143067438D01*
X162829636Y-143067438D02*
X162924874Y-143019819D01*
X164115350Y-143353152D02*
X164115350Y-144019819D01*
X163877255Y-142972200D02*
X163639160Y-143686485D01*
X163639160Y-143686485D02*
X164258207Y-143686485D01*
X164639160Y-143638866D02*
X165401065Y-143638866D01*
X165829636Y-143115057D02*
X165877255Y-143067438D01*
X165877255Y-143067438D02*
X165972493Y-143019819D01*
X165972493Y-143019819D02*
X166210588Y-143019819D01*
X166210588Y-143019819D02*
X166305826Y-143067438D01*
X166305826Y-143067438D02*
X166353445Y-143115057D01*
X166353445Y-143115057D02*
X166401064Y-143210295D01*
X166401064Y-143210295D02*
X166401064Y-143305533D01*
X166401064Y-143305533D02*
X166353445Y-143448390D01*
X166353445Y-143448390D02*
X165782017Y-144019819D01*
X165782017Y-144019819D02*
X166401064Y-144019819D01*
X166782017Y-143115057D02*
X166829636Y-143067438D01*
X166829636Y-143067438D02*
X166924874Y-143019819D01*
X166924874Y-143019819D02*
X167162969Y-143019819D01*
X167162969Y-143019819D02*
X167258207Y-143067438D01*
X167258207Y-143067438D02*
X167305826Y-143115057D01*
X167305826Y-143115057D02*
X167353445Y-143210295D01*
X167353445Y-143210295D02*
X167353445Y-143305533D01*
X167353445Y-143305533D02*
X167305826Y-143448390D01*
X167305826Y-143448390D02*
X166734398Y-144019819D01*
X166734398Y-144019819D02*
X167353445Y-144019819D01*
X167291667Y-130807200D02*
X167434524Y-130854819D01*
X167434524Y-130854819D02*
X167672619Y-130854819D01*
X167672619Y-130854819D02*
X167767857Y-130807200D01*
X167767857Y-130807200D02*
X167815476Y-130759580D01*
X167815476Y-130759580D02*
X167863095Y-130664342D01*
X167863095Y-130664342D02*
X167863095Y-130569104D01*
X167863095Y-130569104D02*
X167815476Y-130473866D01*
X167815476Y-130473866D02*
X167767857Y-130426247D01*
X167767857Y-130426247D02*
X167672619Y-130378628D01*
X167672619Y-130378628D02*
X167482143Y-130331009D01*
X167482143Y-130331009D02*
X167386905Y-130283390D01*
X167386905Y-130283390D02*
X167339286Y-130235771D01*
X167339286Y-130235771D02*
X167291667Y-130140533D01*
X167291667Y-130140533D02*
X167291667Y-130045295D01*
X167291667Y-130045295D02*
X167339286Y-129950057D01*
X167339286Y-129950057D02*
X167386905Y-129902438D01*
X167386905Y-129902438D02*
X167482143Y-129854819D01*
X167482143Y-129854819D02*
X167720238Y-129854819D01*
X167720238Y-129854819D02*
X167863095Y-129902438D01*
X168196429Y-129854819D02*
X168434524Y-130854819D01*
X168434524Y-130854819D02*
X168625000Y-130140533D01*
X168625000Y-130140533D02*
X168815476Y-130854819D01*
X168815476Y-130854819D02*
X169053572Y-129854819D01*
X169958333Y-130854819D02*
X169386905Y-130854819D01*
X169672619Y-130854819D02*
X169672619Y-129854819D01*
X169672619Y-129854819D02*
X169577381Y-129997676D01*
X169577381Y-129997676D02*
X169482143Y-130092914D01*
X169482143Y-130092914D02*
X169386905Y-130140533D01*
X133408333Y-102889866D02*
X133408333Y-104023200D01*
X133408333Y-104023200D02*
X133475000Y-104156533D01*
X133475000Y-104156533D02*
X133541666Y-104223200D01*
X133541666Y-104223200D02*
X133675000Y-104289866D01*
X133675000Y-104289866D02*
X133941666Y-104289866D01*
X133941666Y-104289866D02*
X134075000Y-104223200D01*
X134075000Y-104223200D02*
X134141666Y-104156533D01*
X134141666Y-104156533D02*
X134208333Y-104023200D01*
X134208333Y-104023200D02*
X134208333Y-102889866D01*
X135608333Y-104289866D02*
X134808333Y-104289866D01*
X135208333Y-104289866D02*
X135208333Y-102889866D01*
X135208333Y-102889866D02*
X135075000Y-103089866D01*
X135075000Y-103089866D02*
X134941667Y-103223200D01*
X134941667Y-103223200D02*
X134808333Y-103289866D01*
X166233333Y-107679819D02*
X165900000Y-107203628D01*
X165661905Y-107679819D02*
X165661905Y-106679819D01*
X165661905Y-106679819D02*
X166042857Y-106679819D01*
X166042857Y-106679819D02*
X166138095Y-106727438D01*
X166138095Y-106727438D02*
X166185714Y-106775057D01*
X166185714Y-106775057D02*
X166233333Y-106870295D01*
X166233333Y-106870295D02*
X166233333Y-107013152D01*
X166233333Y-107013152D02*
X166185714Y-107108390D01*
X166185714Y-107108390D02*
X166138095Y-107156009D01*
X166138095Y-107156009D02*
X166042857Y-107203628D01*
X166042857Y-107203628D02*
X165661905Y-107203628D01*
X166566667Y-106679819D02*
X167185714Y-106679819D01*
X167185714Y-106679819D02*
X166852381Y-107060771D01*
X166852381Y-107060771D02*
X166995238Y-107060771D01*
X166995238Y-107060771D02*
X167090476Y-107108390D01*
X167090476Y-107108390D02*
X167138095Y-107156009D01*
X167138095Y-107156009D02*
X167185714Y-107251247D01*
X167185714Y-107251247D02*
X167185714Y-107489342D01*
X167185714Y-107489342D02*
X167138095Y-107584580D01*
X167138095Y-107584580D02*
X167090476Y-107632200D01*
X167090476Y-107632200D02*
X166995238Y-107679819D01*
X166995238Y-107679819D02*
X166709524Y-107679819D01*
X166709524Y-107679819D02*
X166614286Y-107632200D01*
X166614286Y-107632200D02*
X166566667Y-107584580D01*
X166158333Y-113879819D02*
X165825000Y-113403628D01*
X165586905Y-113879819D02*
X165586905Y-112879819D01*
X165586905Y-112879819D02*
X165967857Y-112879819D01*
X165967857Y-112879819D02*
X166063095Y-112927438D01*
X166063095Y-112927438D02*
X166110714Y-112975057D01*
X166110714Y-112975057D02*
X166158333Y-113070295D01*
X166158333Y-113070295D02*
X166158333Y-113213152D01*
X166158333Y-113213152D02*
X166110714Y-113308390D01*
X166110714Y-113308390D02*
X166063095Y-113356009D01*
X166063095Y-113356009D02*
X165967857Y-113403628D01*
X165967857Y-113403628D02*
X165586905Y-113403628D01*
X166539286Y-112975057D02*
X166586905Y-112927438D01*
X166586905Y-112927438D02*
X166682143Y-112879819D01*
X166682143Y-112879819D02*
X166920238Y-112879819D01*
X166920238Y-112879819D02*
X167015476Y-112927438D01*
X167015476Y-112927438D02*
X167063095Y-112975057D01*
X167063095Y-112975057D02*
X167110714Y-113070295D01*
X167110714Y-113070295D02*
X167110714Y-113165533D01*
X167110714Y-113165533D02*
X167063095Y-113308390D01*
X167063095Y-113308390D02*
X166491667Y-113879819D01*
X166491667Y-113879819D02*
X167110714Y-113879819D01*
X136291667Y-133247200D02*
X136434524Y-133294819D01*
X136434524Y-133294819D02*
X136672619Y-133294819D01*
X136672619Y-133294819D02*
X136767857Y-133247200D01*
X136767857Y-133247200D02*
X136815476Y-133199580D01*
X136815476Y-133199580D02*
X136863095Y-133104342D01*
X136863095Y-133104342D02*
X136863095Y-133009104D01*
X136863095Y-133009104D02*
X136815476Y-132913866D01*
X136815476Y-132913866D02*
X136767857Y-132866247D01*
X136767857Y-132866247D02*
X136672619Y-132818628D01*
X136672619Y-132818628D02*
X136482143Y-132771009D01*
X136482143Y-132771009D02*
X136386905Y-132723390D01*
X136386905Y-132723390D02*
X136339286Y-132675771D01*
X136339286Y-132675771D02*
X136291667Y-132580533D01*
X136291667Y-132580533D02*
X136291667Y-132485295D01*
X136291667Y-132485295D02*
X136339286Y-132390057D01*
X136339286Y-132390057D02*
X136386905Y-132342438D01*
X136386905Y-132342438D02*
X136482143Y-132294819D01*
X136482143Y-132294819D02*
X136720238Y-132294819D01*
X136720238Y-132294819D02*
X136863095Y-132342438D01*
X137196429Y-132294819D02*
X137434524Y-133294819D01*
X137434524Y-133294819D02*
X137625000Y-132580533D01*
X137625000Y-132580533D02*
X137815476Y-133294819D01*
X137815476Y-133294819D02*
X138053572Y-132294819D01*
X138910714Y-132294819D02*
X138434524Y-132294819D01*
X138434524Y-132294819D02*
X138386905Y-132771009D01*
X138386905Y-132771009D02*
X138434524Y-132723390D01*
X138434524Y-132723390D02*
X138529762Y-132675771D01*
X138529762Y-132675771D02*
X138767857Y-132675771D01*
X138767857Y-132675771D02*
X138863095Y-132723390D01*
X138863095Y-132723390D02*
X138910714Y-132771009D01*
X138910714Y-132771009D02*
X138958333Y-132866247D01*
X138958333Y-132866247D02*
X138958333Y-133104342D01*
X138958333Y-133104342D02*
X138910714Y-133199580D01*
X138910714Y-133199580D02*
X138863095Y-133247200D01*
X138863095Y-133247200D02*
X138767857Y-133294819D01*
X138767857Y-133294819D02*
X138529762Y-133294819D01*
X138529762Y-133294819D02*
X138434524Y-133247200D01*
X138434524Y-133247200D02*
X138386905Y-133199580D01*
X181216667Y-130782200D02*
X181359524Y-130829819D01*
X181359524Y-130829819D02*
X181597619Y-130829819D01*
X181597619Y-130829819D02*
X181692857Y-130782200D01*
X181692857Y-130782200D02*
X181740476Y-130734580D01*
X181740476Y-130734580D02*
X181788095Y-130639342D01*
X181788095Y-130639342D02*
X181788095Y-130544104D01*
X181788095Y-130544104D02*
X181740476Y-130448866D01*
X181740476Y-130448866D02*
X181692857Y-130401247D01*
X181692857Y-130401247D02*
X181597619Y-130353628D01*
X181597619Y-130353628D02*
X181407143Y-130306009D01*
X181407143Y-130306009D02*
X181311905Y-130258390D01*
X181311905Y-130258390D02*
X181264286Y-130210771D01*
X181264286Y-130210771D02*
X181216667Y-130115533D01*
X181216667Y-130115533D02*
X181216667Y-130020295D01*
X181216667Y-130020295D02*
X181264286Y-129925057D01*
X181264286Y-129925057D02*
X181311905Y-129877438D01*
X181311905Y-129877438D02*
X181407143Y-129829819D01*
X181407143Y-129829819D02*
X181645238Y-129829819D01*
X181645238Y-129829819D02*
X181788095Y-129877438D01*
X182121429Y-129829819D02*
X182359524Y-130829819D01*
X182359524Y-130829819D02*
X182550000Y-130115533D01*
X182550000Y-130115533D02*
X182740476Y-130829819D01*
X182740476Y-130829819D02*
X182978572Y-129829819D01*
X183311905Y-129925057D02*
X183359524Y-129877438D01*
X183359524Y-129877438D02*
X183454762Y-129829819D01*
X183454762Y-129829819D02*
X183692857Y-129829819D01*
X183692857Y-129829819D02*
X183788095Y-129877438D01*
X183788095Y-129877438D02*
X183835714Y-129925057D01*
X183835714Y-129925057D02*
X183883333Y-130020295D01*
X183883333Y-130020295D02*
X183883333Y-130115533D01*
X183883333Y-130115533D02*
X183835714Y-130258390D01*
X183835714Y-130258390D02*
X183264286Y-130829819D01*
X183264286Y-130829819D02*
X183883333Y-130829819D01*
X129266667Y-126722200D02*
X129409524Y-126769819D01*
X129409524Y-126769819D02*
X129647619Y-126769819D01*
X129647619Y-126769819D02*
X129742857Y-126722200D01*
X129742857Y-126722200D02*
X129790476Y-126674580D01*
X129790476Y-126674580D02*
X129838095Y-126579342D01*
X129838095Y-126579342D02*
X129838095Y-126484104D01*
X129838095Y-126484104D02*
X129790476Y-126388866D01*
X129790476Y-126388866D02*
X129742857Y-126341247D01*
X129742857Y-126341247D02*
X129647619Y-126293628D01*
X129647619Y-126293628D02*
X129457143Y-126246009D01*
X129457143Y-126246009D02*
X129361905Y-126198390D01*
X129361905Y-126198390D02*
X129314286Y-126150771D01*
X129314286Y-126150771D02*
X129266667Y-126055533D01*
X129266667Y-126055533D02*
X129266667Y-125960295D01*
X129266667Y-125960295D02*
X129314286Y-125865057D01*
X129314286Y-125865057D02*
X129361905Y-125817438D01*
X129361905Y-125817438D02*
X129457143Y-125769819D01*
X129457143Y-125769819D02*
X129695238Y-125769819D01*
X129695238Y-125769819D02*
X129838095Y-125817438D01*
X130171429Y-125769819D02*
X130409524Y-126769819D01*
X130409524Y-126769819D02*
X130600000Y-126055533D01*
X130600000Y-126055533D02*
X130790476Y-126769819D01*
X130790476Y-126769819D02*
X131028572Y-125769819D01*
X131838095Y-125769819D02*
X131647619Y-125769819D01*
X131647619Y-125769819D02*
X131552381Y-125817438D01*
X131552381Y-125817438D02*
X131504762Y-125865057D01*
X131504762Y-125865057D02*
X131409524Y-126007914D01*
X131409524Y-126007914D02*
X131361905Y-126198390D01*
X131361905Y-126198390D02*
X131361905Y-126579342D01*
X131361905Y-126579342D02*
X131409524Y-126674580D01*
X131409524Y-126674580D02*
X131457143Y-126722200D01*
X131457143Y-126722200D02*
X131552381Y-126769819D01*
X131552381Y-126769819D02*
X131742857Y-126769819D01*
X131742857Y-126769819D02*
X131838095Y-126722200D01*
X131838095Y-126722200D02*
X131885714Y-126674580D01*
X131885714Y-126674580D02*
X131933333Y-126579342D01*
X131933333Y-126579342D02*
X131933333Y-126341247D01*
X131933333Y-126341247D02*
X131885714Y-126246009D01*
X131885714Y-126246009D02*
X131838095Y-126198390D01*
X131838095Y-126198390D02*
X131742857Y-126150771D01*
X131742857Y-126150771D02*
X131552381Y-126150771D01*
X131552381Y-126150771D02*
X131457143Y-126198390D01*
X131457143Y-126198390D02*
X131409524Y-126246009D01*
X131409524Y-126246009D02*
X131361905Y-126341247D01*
X136291667Y-120222200D02*
X136434524Y-120269819D01*
X136434524Y-120269819D02*
X136672619Y-120269819D01*
X136672619Y-120269819D02*
X136767857Y-120222200D01*
X136767857Y-120222200D02*
X136815476Y-120174580D01*
X136815476Y-120174580D02*
X136863095Y-120079342D01*
X136863095Y-120079342D02*
X136863095Y-119984104D01*
X136863095Y-119984104D02*
X136815476Y-119888866D01*
X136815476Y-119888866D02*
X136767857Y-119841247D01*
X136767857Y-119841247D02*
X136672619Y-119793628D01*
X136672619Y-119793628D02*
X136482143Y-119746009D01*
X136482143Y-119746009D02*
X136386905Y-119698390D01*
X136386905Y-119698390D02*
X136339286Y-119650771D01*
X136339286Y-119650771D02*
X136291667Y-119555533D01*
X136291667Y-119555533D02*
X136291667Y-119460295D01*
X136291667Y-119460295D02*
X136339286Y-119365057D01*
X136339286Y-119365057D02*
X136386905Y-119317438D01*
X136386905Y-119317438D02*
X136482143Y-119269819D01*
X136482143Y-119269819D02*
X136720238Y-119269819D01*
X136720238Y-119269819D02*
X136863095Y-119317438D01*
X137196429Y-119269819D02*
X137434524Y-120269819D01*
X137434524Y-120269819D02*
X137625000Y-119555533D01*
X137625000Y-119555533D02*
X137815476Y-120269819D01*
X137815476Y-120269819D02*
X138053572Y-119269819D01*
X138339286Y-119269819D02*
X138958333Y-119269819D01*
X138958333Y-119269819D02*
X138625000Y-119650771D01*
X138625000Y-119650771D02*
X138767857Y-119650771D01*
X138767857Y-119650771D02*
X138863095Y-119698390D01*
X138863095Y-119698390D02*
X138910714Y-119746009D01*
X138910714Y-119746009D02*
X138958333Y-119841247D01*
X138958333Y-119841247D02*
X138958333Y-120079342D01*
X138958333Y-120079342D02*
X138910714Y-120174580D01*
X138910714Y-120174580D02*
X138863095Y-120222200D01*
X138863095Y-120222200D02*
X138767857Y-120269819D01*
X138767857Y-120269819D02*
X138482143Y-120269819D01*
X138482143Y-120269819D02*
X138386905Y-120222200D01*
X138386905Y-120222200D02*
X138339286Y-120174580D01*
X182569047Y-97781009D02*
X182711904Y-97828628D01*
X182711904Y-97828628D02*
X182759523Y-97876247D01*
X182759523Y-97876247D02*
X182807142Y-97971485D01*
X182807142Y-97971485D02*
X182807142Y-98114342D01*
X182807142Y-98114342D02*
X182759523Y-98209580D01*
X182759523Y-98209580D02*
X182711904Y-98257200D01*
X182711904Y-98257200D02*
X182616666Y-98304819D01*
X182616666Y-98304819D02*
X182235714Y-98304819D01*
X182235714Y-98304819D02*
X182235714Y-97304819D01*
X182235714Y-97304819D02*
X182569047Y-97304819D01*
X182569047Y-97304819D02*
X182664285Y-97352438D01*
X182664285Y-97352438D02*
X182711904Y-97400057D01*
X182711904Y-97400057D02*
X182759523Y-97495295D01*
X182759523Y-97495295D02*
X182759523Y-97590533D01*
X182759523Y-97590533D02*
X182711904Y-97685771D01*
X182711904Y-97685771D02*
X182664285Y-97733390D01*
X182664285Y-97733390D02*
X182569047Y-97781009D01*
X182569047Y-97781009D02*
X182235714Y-97781009D01*
X183140476Y-97304819D02*
X183807142Y-97304819D01*
X183807142Y-97304819D02*
X183140476Y-98304819D01*
X183140476Y-98304819D02*
X183807142Y-98304819D01*
X184711904Y-98304819D02*
X184140476Y-98304819D01*
X184426190Y-98304819D02*
X184426190Y-97304819D01*
X184426190Y-97304819D02*
X184330952Y-97447676D01*
X184330952Y-97447676D02*
X184235714Y-97542914D01*
X184235714Y-97542914D02*
X184140476Y-97590533D01*
X174259048Y-101508866D02*
X175020953Y-101508866D01*
X174640000Y-101889819D02*
X174640000Y-101127914D01*
X166333333Y-91329819D02*
X166000000Y-90853628D01*
X165761905Y-91329819D02*
X165761905Y-90329819D01*
X165761905Y-90329819D02*
X166142857Y-90329819D01*
X166142857Y-90329819D02*
X166238095Y-90377438D01*
X166238095Y-90377438D02*
X166285714Y-90425057D01*
X166285714Y-90425057D02*
X166333333Y-90520295D01*
X166333333Y-90520295D02*
X166333333Y-90663152D01*
X166333333Y-90663152D02*
X166285714Y-90758390D01*
X166285714Y-90758390D02*
X166238095Y-90806009D01*
X166238095Y-90806009D02*
X166142857Y-90853628D01*
X166142857Y-90853628D02*
X165761905Y-90853628D01*
X167285714Y-91329819D02*
X166714286Y-91329819D01*
X167000000Y-91329819D02*
X167000000Y-90329819D01*
X167000000Y-90329819D02*
X166904762Y-90472676D01*
X166904762Y-90472676D02*
X166809524Y-90567914D01*
X166809524Y-90567914D02*
X166714286Y-90615533D01*
X136225476Y-28838819D02*
X136225476Y-27838819D01*
X136225476Y-27838819D02*
X136796904Y-28838819D01*
X136796904Y-28838819D02*
X136796904Y-27838819D01*
X137273095Y-28838819D02*
X137273095Y-27838819D01*
X137273095Y-28315009D02*
X137844523Y-28315009D01*
X137844523Y-28838819D02*
X137844523Y-27838819D01*
X138320714Y-28838819D02*
X138320714Y-27838819D01*
X138320714Y-27838819D02*
X138558809Y-27838819D01*
X138558809Y-27838819D02*
X138701666Y-27886438D01*
X138701666Y-27886438D02*
X138796904Y-27981676D01*
X138796904Y-27981676D02*
X138844523Y-28076914D01*
X138844523Y-28076914D02*
X138892142Y-28267390D01*
X138892142Y-28267390D02*
X138892142Y-28410247D01*
X138892142Y-28410247D02*
X138844523Y-28600723D01*
X138844523Y-28600723D02*
X138796904Y-28695961D01*
X138796904Y-28695961D02*
X138701666Y-28791200D01*
X138701666Y-28791200D02*
X138558809Y-28838819D01*
X138558809Y-28838819D02*
X138320714Y-28838819D01*
X166233333Y-102729819D02*
X165900000Y-102253628D01*
X165661905Y-102729819D02*
X165661905Y-101729819D01*
X165661905Y-101729819D02*
X166042857Y-101729819D01*
X166042857Y-101729819D02*
X166138095Y-101777438D01*
X166138095Y-101777438D02*
X166185714Y-101825057D01*
X166185714Y-101825057D02*
X166233333Y-101920295D01*
X166233333Y-101920295D02*
X166233333Y-102063152D01*
X166233333Y-102063152D02*
X166185714Y-102158390D01*
X166185714Y-102158390D02*
X166138095Y-102206009D01*
X166138095Y-102206009D02*
X166042857Y-102253628D01*
X166042857Y-102253628D02*
X165661905Y-102253628D01*
X167090476Y-102063152D02*
X167090476Y-102729819D01*
X166852381Y-101682200D02*
X166614286Y-102396485D01*
X166614286Y-102396485D02*
X167233333Y-102396485D01*
X166483333Y-96654819D02*
X166150000Y-96178628D01*
X165911905Y-96654819D02*
X165911905Y-95654819D01*
X165911905Y-95654819D02*
X166292857Y-95654819D01*
X166292857Y-95654819D02*
X166388095Y-95702438D01*
X166388095Y-95702438D02*
X166435714Y-95750057D01*
X166435714Y-95750057D02*
X166483333Y-95845295D01*
X166483333Y-95845295D02*
X166483333Y-95988152D01*
X166483333Y-95988152D02*
X166435714Y-96083390D01*
X166435714Y-96083390D02*
X166388095Y-96131009D01*
X166388095Y-96131009D02*
X166292857Y-96178628D01*
X166292857Y-96178628D02*
X165911905Y-96178628D01*
X167388095Y-95654819D02*
X166911905Y-95654819D01*
X166911905Y-95654819D02*
X166864286Y-96131009D01*
X166864286Y-96131009D02*
X166911905Y-96083390D01*
X166911905Y-96083390D02*
X167007143Y-96035771D01*
X167007143Y-96035771D02*
X167245238Y-96035771D01*
X167245238Y-96035771D02*
X167340476Y-96083390D01*
X167340476Y-96083390D02*
X167388095Y-96131009D01*
X167388095Y-96131009D02*
X167435714Y-96226247D01*
X167435714Y-96226247D02*
X167435714Y-96464342D01*
X167435714Y-96464342D02*
X167388095Y-96559580D01*
X167388095Y-96559580D02*
X167340476Y-96607200D01*
X167340476Y-96607200D02*
X167245238Y-96654819D01*
X167245238Y-96654819D02*
X167007143Y-96654819D01*
X167007143Y-96654819D02*
X166911905Y-96607200D01*
X166911905Y-96607200D02*
X166864286Y-96559580D01*
X92006905Y-34744819D02*
X92006905Y-33744819D01*
X92006905Y-33744819D02*
X92245000Y-33744819D01*
X92245000Y-33744819D02*
X92387857Y-33792438D01*
X92387857Y-33792438D02*
X92483095Y-33887676D01*
X92483095Y-33887676D02*
X92530714Y-33982914D01*
X92530714Y-33982914D02*
X92578333Y-34173390D01*
X92578333Y-34173390D02*
X92578333Y-34316247D01*
X92578333Y-34316247D02*
X92530714Y-34506723D01*
X92530714Y-34506723D02*
X92483095Y-34601961D01*
X92483095Y-34601961D02*
X92387857Y-34697200D01*
X92387857Y-34697200D02*
X92245000Y-34744819D01*
X92245000Y-34744819D02*
X92006905Y-34744819D01*
X93530714Y-34744819D02*
X92959286Y-34744819D01*
X93245000Y-34744819D02*
X93245000Y-33744819D01*
X93245000Y-33744819D02*
X93149762Y-33887676D01*
X93149762Y-33887676D02*
X93054524Y-33982914D01*
X93054524Y-33982914D02*
X92959286Y-34030533D01*
X89071009Y-97215475D02*
X89071009Y-96882142D01*
X89594819Y-96739285D02*
X89594819Y-97215475D01*
X89594819Y-97215475D02*
X88594819Y-97215475D01*
X88594819Y-97215475D02*
X88594819Y-96739285D01*
X89594819Y-96310713D02*
X88594819Y-96310713D01*
X88594819Y-96310713D02*
X89309104Y-95977380D01*
X89309104Y-95977380D02*
X88594819Y-95644047D01*
X88594819Y-95644047D02*
X89594819Y-95644047D01*
X88928152Y-94739285D02*
X89594819Y-94739285D01*
X88547200Y-94977380D02*
X89261485Y-95215475D01*
X89261485Y-95215475D02*
X89261485Y-94596428D01*
X89594819Y-93691666D02*
X89594819Y-94263094D01*
X89594819Y-93977380D02*
X88594819Y-93977380D01*
X88594819Y-93977380D02*
X88737676Y-94072618D01*
X88737676Y-94072618D02*
X88832914Y-94167856D01*
X88832914Y-94167856D02*
X88880533Y-94263094D01*
X88594819Y-93072618D02*
X88594819Y-92977380D01*
X88594819Y-92977380D02*
X88642438Y-92882142D01*
X88642438Y-92882142D02*
X88690057Y-92834523D01*
X88690057Y-92834523D02*
X88785295Y-92786904D01*
X88785295Y-92786904D02*
X88975771Y-92739285D01*
X88975771Y-92739285D02*
X89213866Y-92739285D01*
X89213866Y-92739285D02*
X89404342Y-92786904D01*
X89404342Y-92786904D02*
X89499580Y-92834523D01*
X89499580Y-92834523D02*
X89547200Y-92882142D01*
X89547200Y-92882142D02*
X89594819Y-92977380D01*
X89594819Y-92977380D02*
X89594819Y-93072618D01*
X89594819Y-93072618D02*
X89547200Y-93167856D01*
X89547200Y-93167856D02*
X89499580Y-93215475D01*
X89499580Y-93215475D02*
X89404342Y-93263094D01*
X89404342Y-93263094D02*
X89213866Y-93310713D01*
X89213866Y-93310713D02*
X88975771Y-93310713D01*
X88975771Y-93310713D02*
X88785295Y-93263094D01*
X88785295Y-93263094D02*
X88690057Y-93215475D01*
X88690057Y-93215475D02*
X88642438Y-93167856D01*
X88642438Y-93167856D02*
X88594819Y-93072618D01*
X88594819Y-92120237D02*
X88594819Y-92024999D01*
X88594819Y-92024999D02*
X88642438Y-91929761D01*
X88642438Y-91929761D02*
X88690057Y-91882142D01*
X88690057Y-91882142D02*
X88785295Y-91834523D01*
X88785295Y-91834523D02*
X88975771Y-91786904D01*
X88975771Y-91786904D02*
X89213866Y-91786904D01*
X89213866Y-91786904D02*
X89404342Y-91834523D01*
X89404342Y-91834523D02*
X89499580Y-91882142D01*
X89499580Y-91882142D02*
X89547200Y-91929761D01*
X89547200Y-91929761D02*
X89594819Y-92024999D01*
X89594819Y-92024999D02*
X89594819Y-92120237D01*
X89594819Y-92120237D02*
X89547200Y-92215475D01*
X89547200Y-92215475D02*
X89499580Y-92263094D01*
X89499580Y-92263094D02*
X89404342Y-92310713D01*
X89404342Y-92310713D02*
X89213866Y-92358332D01*
X89213866Y-92358332D02*
X88975771Y-92358332D01*
X88975771Y-92358332D02*
X88785295Y-92310713D01*
X88785295Y-92310713D02*
X88690057Y-92263094D01*
X88690057Y-92263094D02*
X88642438Y-92215475D01*
X88642438Y-92215475D02*
X88594819Y-92120237D01*
X143341667Y-126722200D02*
X143484524Y-126769819D01*
X143484524Y-126769819D02*
X143722619Y-126769819D01*
X143722619Y-126769819D02*
X143817857Y-126722200D01*
X143817857Y-126722200D02*
X143865476Y-126674580D01*
X143865476Y-126674580D02*
X143913095Y-126579342D01*
X143913095Y-126579342D02*
X143913095Y-126484104D01*
X143913095Y-126484104D02*
X143865476Y-126388866D01*
X143865476Y-126388866D02*
X143817857Y-126341247D01*
X143817857Y-126341247D02*
X143722619Y-126293628D01*
X143722619Y-126293628D02*
X143532143Y-126246009D01*
X143532143Y-126246009D02*
X143436905Y-126198390D01*
X143436905Y-126198390D02*
X143389286Y-126150771D01*
X143389286Y-126150771D02*
X143341667Y-126055533D01*
X143341667Y-126055533D02*
X143341667Y-125960295D01*
X143341667Y-125960295D02*
X143389286Y-125865057D01*
X143389286Y-125865057D02*
X143436905Y-125817438D01*
X143436905Y-125817438D02*
X143532143Y-125769819D01*
X143532143Y-125769819D02*
X143770238Y-125769819D01*
X143770238Y-125769819D02*
X143913095Y-125817438D01*
X144246429Y-125769819D02*
X144484524Y-126769819D01*
X144484524Y-126769819D02*
X144675000Y-126055533D01*
X144675000Y-126055533D02*
X144865476Y-126769819D01*
X144865476Y-126769819D02*
X145103572Y-125769819D01*
X145913095Y-126103152D02*
X145913095Y-126769819D01*
X145675000Y-125722200D02*
X145436905Y-126436485D01*
X145436905Y-126436485D02*
X146055952Y-126436485D01*
X181636905Y-34504819D02*
X181636905Y-33504819D01*
X181636905Y-33504819D02*
X181875000Y-33504819D01*
X181875000Y-33504819D02*
X182017857Y-33552438D01*
X182017857Y-33552438D02*
X182113095Y-33647676D01*
X182113095Y-33647676D02*
X182160714Y-33742914D01*
X182160714Y-33742914D02*
X182208333Y-33933390D01*
X182208333Y-33933390D02*
X182208333Y-34076247D01*
X182208333Y-34076247D02*
X182160714Y-34266723D01*
X182160714Y-34266723D02*
X182113095Y-34361961D01*
X182113095Y-34361961D02*
X182017857Y-34457200D01*
X182017857Y-34457200D02*
X181875000Y-34504819D01*
X181875000Y-34504819D02*
X181636905Y-34504819D01*
X182589286Y-33600057D02*
X182636905Y-33552438D01*
X182636905Y-33552438D02*
X182732143Y-33504819D01*
X182732143Y-33504819D02*
X182970238Y-33504819D01*
X182970238Y-33504819D02*
X183065476Y-33552438D01*
X183065476Y-33552438D02*
X183113095Y-33600057D01*
X183113095Y-33600057D02*
X183160714Y-33695295D01*
X183160714Y-33695295D02*
X183160714Y-33790533D01*
X183160714Y-33790533D02*
X183113095Y-33933390D01*
X183113095Y-33933390D02*
X182541667Y-34504819D01*
X182541667Y-34504819D02*
X183160714Y-34504819D01*
D11*
%TO.C,SW1*%
X160225000Y-127375000D02*
X166225000Y-127375000D01*
X160225000Y-129300000D02*
X160225000Y-127375000D01*
X160225000Y-133375000D02*
X160225000Y-131450000D01*
X166225000Y-127375000D02*
X166225000Y-129300000D01*
X166225000Y-131450000D02*
X166225000Y-133375000D01*
X166225000Y-133375000D02*
X160225000Y-133375000D01*
D12*
X159525000Y-130375000D02*
G75*
G02*
X159325000Y-130375000I-100000J0D01*
G01*
X159325000Y-130375000D02*
G75*
G02*
X159525000Y-130375000I100000J0D01*
G01*
D11*
%TO.C,U1*%
X109410000Y-114465000D02*
X109410000Y-94145000D01*
X111950000Y-91605000D02*
X155130000Y-91605000D01*
X155130000Y-117005000D02*
X111950000Y-117005000D01*
X157670000Y-94145000D02*
X157670000Y-114465000D01*
X109410000Y-94145000D02*
G75*
G02*
X111950000Y-91605000I2540001J-1D01*
G01*
X111950000Y-117005000D02*
G75*
G02*
X109410000Y-114465000I0J2540000D01*
G01*
X155130000Y-91605000D02*
G75*
G02*
X157670000Y-94145000I-1J-2540001D01*
G01*
X157670000Y-114465000D02*
G75*
G02*
X155130000Y-117005000I-2540000J0D01*
G01*
D12*
X151420000Y-90495000D02*
G75*
G02*
X151220000Y-90495000I-100000J0D01*
G01*
X151220000Y-90495000D02*
G75*
G02*
X151420000Y-90495000I100000J0D01*
G01*
X151420000Y-118115000D02*
G75*
G02*
X151220000Y-118115000I-100000J0D01*
G01*
X151220000Y-118115000D02*
G75*
G02*
X151420000Y-118115000I100000J0D01*
G01*
D13*
%TO.C,R3*%
X162097936Y-107240000D02*
X163552064Y-107240000D01*
X162097936Y-109060000D02*
X163552064Y-109060000D01*
%TO.C,R2*%
X162097936Y-112465000D02*
X163552064Y-112465000D01*
X162097936Y-114285000D02*
X163552064Y-114285000D01*
D11*
%TO.C,SW5*%
X134450000Y-133975000D02*
X140450000Y-133975000D01*
X134450000Y-135900000D02*
X134450000Y-133975000D01*
X134450000Y-139975000D02*
X134450000Y-138050000D01*
X140450000Y-133975000D02*
X140450000Y-135900000D01*
X140450000Y-138050000D02*
X140450000Y-139975000D01*
X140450000Y-139975000D02*
X134450000Y-139975000D01*
D12*
X133750000Y-136975000D02*
G75*
G02*
X133550000Y-136975000I-100000J0D01*
G01*
X133550000Y-136975000D02*
G75*
G02*
X133750000Y-136975000I100000J0D01*
G01*
D11*
%TO.C,SW2*%
X174310500Y-127400000D02*
X180310500Y-127400000D01*
X174310500Y-129325000D02*
X174310500Y-127400000D01*
X174310500Y-133400000D02*
X174310500Y-131475000D01*
X180310500Y-127400000D02*
X180310500Y-129325000D01*
X180310500Y-131475000D02*
X180310500Y-133400000D01*
X180310500Y-133400000D02*
X174310500Y-133400000D01*
D12*
X173610500Y-130400000D02*
G75*
G02*
X173410500Y-130400000I-100000J0D01*
G01*
X173410500Y-130400000D02*
G75*
G02*
X173610500Y-130400000I100000J0D01*
G01*
D11*
%TO.C,SW6*%
X127425000Y-127450000D02*
X133425000Y-127450000D01*
X127425000Y-129375000D02*
X127425000Y-127450000D01*
X127425000Y-133450000D02*
X127425000Y-131525000D01*
X133425000Y-127450000D02*
X133425000Y-129375000D01*
X133425000Y-131525000D02*
X133425000Y-133450000D01*
X133425000Y-133450000D02*
X127425000Y-133450000D01*
D12*
X126725000Y-130450000D02*
G75*
G02*
X126525000Y-130450000I-100000J0D01*
G01*
X126525000Y-130450000D02*
G75*
G02*
X126725000Y-130450000I100000J0D01*
G01*
D11*
%TO.C,SW3*%
X134450000Y-120950000D02*
X140450000Y-120950000D01*
X134450000Y-122875000D02*
X134450000Y-120950000D01*
X134450000Y-126950000D02*
X134450000Y-125025000D01*
X140450000Y-120950000D02*
X140450000Y-122875000D01*
X140450000Y-125025000D02*
X140450000Y-126950000D01*
X140450000Y-126950000D02*
X134450000Y-126950000D01*
D12*
X133750000Y-123950000D02*
G75*
G02*
X133550000Y-123950000I-100000J0D01*
G01*
X133550000Y-123950000D02*
G75*
G02*
X133750000Y-123950000I100000J0D01*
G01*
D13*
%TO.C,BZ1*%
X184550000Y-103975000D02*
G75*
G02*
X172350000Y-103975000I-6100000J0D01*
G01*
X172350000Y-103975000D02*
G75*
G02*
X184550000Y-103975000I6100000J0D01*
G01*
%TO.C,R1*%
X163552064Y-89915000D02*
X162097936Y-89915000D01*
X163552064Y-91735000D02*
X162097936Y-91735000D01*
%TO.C,R4*%
X162097936Y-101490000D02*
X163552064Y-101490000D01*
X162097936Y-103310000D02*
X163552064Y-103310000D01*
%TO.C,R5*%
X162097936Y-95315000D02*
X163552064Y-95315000D01*
X162097936Y-97135000D02*
X163552064Y-97135000D01*
%TO.C,D1*%
X90185000Y-36705000D02*
X90185000Y-39795000D01*
X90185001Y-36705170D02*
G75*
G02*
X95734999Y-38250462I2559999J-1544830D01*
G01*
X95735000Y-38249538D02*
G75*
G02*
X90185000Y-39794830I-2990000J-462D01*
G01*
X95245000Y-38250000D02*
G75*
G02*
X90245000Y-38250000I-2500000J0D01*
G01*
X90245000Y-38250000D02*
G75*
G02*
X95245000Y-38250000I2500000J0D01*
G01*
%TO.C,EM4100*%
X89950000Y-91525000D02*
X92950000Y-91525000D01*
X89950000Y-94525000D02*
X89950000Y-91525000D01*
X90450000Y-91975000D02*
X101500000Y-91975000D01*
X90450000Y-97825000D02*
X90450000Y-91975000D01*
X90450000Y-97825000D02*
X93100000Y-97825000D01*
X93350000Y-97825000D02*
X93950000Y-97825000D01*
X94200000Y-97825000D02*
X97700000Y-97825000D01*
X97950000Y-97825000D02*
X98550000Y-97825000D01*
X98850000Y-97825000D02*
X101500000Y-97825000D01*
X101500000Y-97825000D02*
X101500000Y-91975000D01*
D11*
%TO.C,SW4*%
X141500000Y-127450000D02*
X147500000Y-127450000D01*
X141500000Y-129375000D02*
X141500000Y-127450000D01*
X141500000Y-133450000D02*
X141500000Y-131525000D01*
X147500000Y-127450000D02*
X147500000Y-129375000D01*
X147500000Y-131525000D02*
X147500000Y-133450000D01*
X147500000Y-133450000D02*
X141500000Y-133450000D01*
D12*
X140800000Y-130450000D02*
G75*
G02*
X140600000Y-130450000I-100000J0D01*
G01*
X140600000Y-130450000D02*
G75*
G02*
X140800000Y-130450000I100000J0D01*
G01*
D13*
%TO.C,D2*%
X184890000Y-39745000D02*
X184890000Y-36655000D01*
X179340000Y-38200462D02*
G75*
G02*
X184890000Y-36655170I2990000J462D01*
G01*
X184889999Y-39744830D02*
G75*
G02*
X179340001Y-38199538I-2559999J1544830D01*
G01*
X184830000Y-38200000D02*
G75*
G02*
X179830000Y-38200000I-2500000J0D01*
G01*
X179830000Y-38200000D02*
G75*
G02*
X184830000Y-38200000I2500000J0D01*
G01*
%TD*%
%LPC*%
D14*
%TO.C,SW1*%
X160725000Y-130375000D03*
X165725000Y-130375000D03*
%TD*%
D15*
%TO.C,U1*%
X155130000Y-94145000D03*
X111950000Y-94145000D03*
X155130000Y-114465000D03*
X111950000Y-114465000D03*
D16*
X151320000Y-92875000D03*
X148780000Y-92875000D03*
X146240000Y-92875000D03*
X143700000Y-92875000D03*
X141160000Y-92875000D03*
X138620000Y-92875000D03*
X136080000Y-92875000D03*
X133540000Y-92875000D03*
X131000000Y-92875000D03*
D17*
X128460000Y-92875000D03*
D16*
X125920000Y-92875000D03*
X123380000Y-92875000D03*
X120840000Y-92875000D03*
D17*
X118300000Y-92875000D03*
D16*
X115760000Y-92875000D03*
X115760000Y-115735000D03*
D17*
X118300000Y-115735000D03*
D16*
X120840000Y-115735000D03*
X123380000Y-115735000D03*
X125920000Y-115735000D03*
X128460000Y-115735000D03*
X131000000Y-115735000D03*
X133540000Y-115735000D03*
D17*
X136080000Y-115735000D03*
D16*
X138620000Y-115735000D03*
X141160000Y-115735000D03*
X143700000Y-115735000D03*
X146240000Y-115735000D03*
X148780000Y-115735000D03*
X151320000Y-115735000D03*
%TD*%
D18*
%TO.C,R3*%
X161275000Y-108150000D03*
X164375000Y-108150000D03*
%TD*%
%TO.C,R2*%
X161275000Y-113375000D03*
X164375000Y-113375000D03*
%TD*%
D14*
%TO.C,SW5*%
X134950000Y-136975000D03*
X139950000Y-136975000D03*
%TD*%
%TO.C,SW2*%
X174810500Y-130400000D03*
X179810500Y-130400000D03*
%TD*%
%TO.C,SW6*%
X127925000Y-130450000D03*
X132925000Y-130450000D03*
%TD*%
%TO.C,SW3*%
X134950000Y-123950000D03*
X139950000Y-123950000D03*
%TD*%
D19*
%TO.C,BZ1*%
X174650000Y-103975000D03*
D20*
X182250000Y-103975000D03*
%TD*%
D21*
%TO.C,R1*%
X164375000Y-90825000D03*
X161275000Y-90825000D03*
%TD*%
D22*
%TO.C,NHD*%
X105135000Y-85540000D03*
X107675000Y-85540000D03*
X110215000Y-85540000D03*
X112755000Y-85540000D03*
X115295000Y-85540000D03*
X117835000Y-85540000D03*
D23*
X157235000Y-85540000D03*
D22*
X159775000Y-85540000D03*
X162315000Y-85540000D03*
X164855000Y-85540000D03*
X167395000Y-85540000D03*
X169935000Y-85540000D03*
%TD*%
D18*
%TO.C,R4*%
X161275000Y-102400000D03*
X164375000Y-102400000D03*
%TD*%
%TO.C,R5*%
X161275000Y-96225000D03*
X164375000Y-96225000D03*
%TD*%
D24*
%TO.C,D1*%
X91475000Y-38250000D03*
D25*
X94015000Y-38250000D03*
%TD*%
D26*
%TO.C,EM4100*%
X92950000Y-94525000D03*
D27*
X94950000Y-94525000D03*
X96950000Y-94525000D03*
X98950000Y-94525000D03*
%TD*%
D14*
%TO.C,SW4*%
X142000000Y-130450000D03*
X147000000Y-130450000D03*
%TD*%
D24*
%TO.C,D2*%
X183600000Y-38200000D03*
D25*
X181060000Y-38200000D03*
%TD*%
%LPD*%
M02*
