%TF.GenerationSoftware,KiCad,Pcbnew,8.0.1*%
%TF.CreationDate,2024-04-24T10:41:03+02:00*%
%TF.ProjectId,PCB,5043422e-6b69-4636-9164-5f7063625858,v0.1*%
%TF.SameCoordinates,Original*%
%TF.FileFunction,Copper,L1,Top*%
%TF.FilePolarity,Positive*%
%FSLAX46Y46*%
G04 Gerber Fmt 4.6, Leading zero omitted, Abs format (unit mm)*
G04 Created by KiCad (PCBNEW 8.0.1) date 2024-04-24 10:41:03*
%MOMM*%
%LPD*%
G01*
G04 APERTURE LIST*
G04 Aperture macros list*
%AMRoundRect*
0 Rectangle with rounded corners*
0 $1 Rounding radius*
0 $2 $3 $4 $5 $6 $7 $8 $9 X,Y pos of 4 corners*
0 Add a 4 corners polygon primitive as box body*
4,1,4,$2,$3,$4,$5,$6,$7,$8,$9,$2,$3,0*
0 Add four circle primitives for the rounded corners*
1,1,$1+$1,$2,$3*
1,1,$1+$1,$4,$5*
1,1,$1+$1,$6,$7*
1,1,$1+$1,$8,$9*
0 Add four rect primitives between the rounded corners*
20,1,$1+$1,$2,$3,$4,$5,0*
20,1,$1+$1,$4,$5,$6,$7,0*
20,1,$1+$1,$6,$7,$8,$9,0*
20,1,$1+$1,$8,$9,$2,$3,0*%
G04 Aperture macros list end*
%TA.AperFunction,ComponentPad*%
%ADD10C,1.508000*%
%TD*%
%TA.AperFunction,ComponentPad*%
%ADD11C,1.930000*%
%TD*%
%TA.AperFunction,ComponentPad*%
%ADD12R,1.930000X1.930000*%
%TD*%
%TA.AperFunction,SMDPad,CuDef*%
%ADD13RoundRect,0.250000X-0.400000X-0.625000X0.400000X-0.625000X0.400000X0.625000X-0.400000X0.625000X0*%
%TD*%
%TA.AperFunction,ComponentPad*%
%ADD14R,2.000000X2.000000*%
%TD*%
%TA.AperFunction,ComponentPad*%
%ADD15C,2.000000*%
%TD*%
%TA.AperFunction,SMDPad,CuDef*%
%ADD16RoundRect,0.250000X0.400000X0.625000X-0.400000X0.625000X-0.400000X-0.625000X0.400000X-0.625000X0*%
%TD*%
%TA.AperFunction,ComponentPad*%
%ADD17C,1.200000*%
%TD*%
%TA.AperFunction,ComponentPad*%
%ADD18R,1.200000X1.200000*%
%TD*%
%TA.AperFunction,ComponentPad*%
%ADD19R,1.800000X1.800000*%
%TD*%
%TA.AperFunction,ComponentPad*%
%ADD20C,1.800000*%
%TD*%
%TA.AperFunction,ComponentPad*%
%ADD21R,1.524000X1.524000*%
%TD*%
%TA.AperFunction,ComponentPad*%
%ADD22C,1.524000*%
%TD*%
%TA.AperFunction,Conductor*%
%ADD23C,0.500000*%
%TD*%
G04 APERTURE END LIST*
D10*
%TO.P,SW1,1,1*%
%TO.N,Net-(U1-RX(DPIO3))*%
X160725000Y-130375000D03*
%TO.P,SW1,2,2*%
%TO.N,GND*%
X165725000Y-130375000D03*
%TD*%
D11*
%TO.P,U1,1,A0(ADC0)*%
%TO.N,/Analog buttons*%
X151320000Y-92875000D03*
%TO.P,U1,2,RSV*%
%TO.N,unconnected-(U1-RSV-Pad2)*%
X148780000Y-92875000D03*
%TO.P,U1,3,RSV*%
%TO.N,unconnected-(U1-RSV-Pad3)*%
X146240000Y-92875000D03*
%TO.P,U1,4,SD3(GPIO10)*%
%TO.N,Net-(EM4100-TX)*%
X143700000Y-92875000D03*
%TO.P,U1,5,SD2(GPIO9)*%
%TO.N,Net-(EM4100-RX)*%
X141160000Y-92875000D03*
%TO.P,U1,6,SD1(MOSI)*%
%TO.N,unconnected-(U1-SD1(MOSI)-Pad6)*%
X138620000Y-92875000D03*
%TO.P,U1,7,CMD(CS)*%
%TO.N,unconnected-(U1-CMD(CS)-Pad7)*%
X136080000Y-92875000D03*
%TO.P,U1,8,SDO(MISO)*%
%TO.N,unconnected-(U1-SDO(MISO)-Pad8)*%
X133540000Y-92875000D03*
%TO.P,U1,9,CLK(SCLK)*%
%TO.N,unconnected-(U1-CLK(SCLK)-Pad9)*%
X131000000Y-92875000D03*
D12*
%TO.P,U1,10,GND*%
%TO.N,unconnected-(U1-GND-Pad10)*%
X128460000Y-92875000D03*
D11*
%TO.P,U1,11,3.3V*%
%TO.N,unconnected-(U1-3.3V-Pad11)*%
X125920000Y-92875000D03*
%TO.P,U1,12,EN*%
%TO.N,unconnected-(U1-EN-Pad12)*%
X123380000Y-92875000D03*
%TO.P,U1,13,RST*%
%TO.N,unconnected-(U1-RST-Pad13)*%
X120840000Y-92875000D03*
D12*
%TO.P,U1,14,GND*%
%TO.N,GND*%
X118300000Y-92875000D03*
D11*
%TO.P,U1,15,VIN*%
%TO.N,VCC*%
X115760000Y-92875000D03*
%TO.P,U1,16,3.3V*%
%TO.N,Net-(NHD-C12864A1Z-FSW-FBW-HTT1-LED+)*%
X115760000Y-115735000D03*
D12*
%TO.P,U1,17,GND*%
%TO.N,GND*%
X118300000Y-115735000D03*
D11*
%TO.P,U1,18,TX(GPIO1)*%
%TO.N,Net-(U1-TX(GPIO1))*%
X120840000Y-115735000D03*
%TO.P,U1,19,RX(DPIO3)*%
%TO.N,Net-(U1-RX(DPIO3))*%
X123380000Y-115735000D03*
%TO.P,U1,20,D8(GPIO15)*%
%TO.N,Net-(NHD-C12864A1Z-FSW-FBW-HTT1-~{CS})*%
X125920000Y-115735000D03*
%TO.P,U1,21,D7(GPIO13)*%
%TO.N,Net-(NHD-C12864A1Z-FSW-FBW-HTT1-SI)*%
X128460000Y-115735000D03*
%TO.P,U1,22,D6(GPIO12)*%
%TO.N,Net-(BZ1-+)*%
X131000000Y-115735000D03*
%TO.P,U1,23,D5(GPIO14)*%
%TO.N,Net-(NHD-C12864A1Z-FSW-FBW-HTT1-SCL)*%
X133540000Y-115735000D03*
D12*
%TO.P,U1,24,GND*%
%TO.N,GND*%
X136080000Y-115735000D03*
D11*
%TO.P,U1,25,3.3V*%
%TO.N,Net-(NHD-C12864A1Z-FSW-FBW-HTT1-VDD)*%
X138620000Y-115735000D03*
%TO.P,U1,26,D4(GPIO2)*%
%TO.N,Net-(D2-A)*%
X141160000Y-115735000D03*
%TO.P,U1,27,D3(GPIO0)*%
%TO.N,Net-(D1-A)*%
X143700000Y-115735000D03*
%TO.P,U1,28,D2(GPIO4)*%
%TO.N,Net-(NHD-C12864A1Z-FSW-FBW-HTT1-~{RESET})*%
X146240000Y-115735000D03*
%TO.P,U1,29,D1(GPIO5)*%
%TO.N,Net-(NHD-C12864A1Z-FSW-FBW-HTT1-A0)*%
X148780000Y-115735000D03*
%TO.P,U1,30,D0(GPIO16)*%
%TO.N,unconnected-(U1-D0(GPIO16)-Pad30)*%
X151320000Y-115735000D03*
%TD*%
D13*
%TO.P,R3,1*%
%TO.N,/Analog buttons*%
X161275000Y-108150000D03*
%TO.P,R3,2*%
%TO.N,Net-(R3-Pad2)*%
X164375000Y-108150000D03*
%TD*%
%TO.P,R2,1*%
%TO.N,/Analog buttons*%
X161275000Y-113375000D03*
%TO.P,R2,2*%
%TO.N,Net-(R2-Pad2)*%
X164375000Y-113375000D03*
%TD*%
D10*
%TO.P,SW5,1,1*%
%TO.N,Net-(NHD-C12864A1Z-FSW-FBW-HTT1-VDD)*%
X134950000Y-136975000D03*
%TO.P,SW5,2,2*%
%TO.N,Net-(R4-Pad2)*%
X139950000Y-136975000D03*
%TD*%
%TO.P,SW2,1,1*%
%TO.N,Net-(U1-TX(GPIO1))*%
X174810500Y-130400000D03*
%TO.P,SW2,2,2*%
%TO.N,GND*%
X179810500Y-130400000D03*
%TD*%
%TO.P,SW6,1,1*%
%TO.N,Net-(NHD-C12864A1Z-FSW-FBW-HTT1-VDD)*%
X127925000Y-130450000D03*
%TO.P,SW6,2,2*%
%TO.N,Net-(R5-Pad2)*%
X132925000Y-130450000D03*
%TD*%
%TO.P,SW3,1,1*%
%TO.N,Net-(NHD-C12864A1Z-FSW-FBW-HTT1-VDD)*%
X134950000Y-123950000D03*
%TO.P,SW3,2,2*%
%TO.N,Net-(R2-Pad2)*%
X139950000Y-123950000D03*
%TD*%
D14*
%TO.P,BZ1,1,+*%
%TO.N,Net-(BZ1-+)*%
X174650000Y-103975000D03*
D15*
%TO.P,BZ1,2,-*%
%TO.N,GND*%
X182250000Y-103975000D03*
%TD*%
D16*
%TO.P,R1,1*%
%TO.N,GND*%
X164375000Y-90825000D03*
%TO.P,R1,2*%
%TO.N,/Analog buttons*%
X161275000Y-90825000D03*
%TD*%
D17*
%TO.P,NHD,1,SCL*%
%TO.N,Net-(NHD-C12864A1Z-FSW-FBW-HTT1-SCL)*%
X105135000Y-85540000D03*
%TO.P,NHD,2,SI*%
%TO.N,Net-(NHD-C12864A1Z-FSW-FBW-HTT1-SI)*%
X107675000Y-85540000D03*
%TO.P,NHD,3,VDD*%
%TO.N,Net-(NHD-C12864A1Z-FSW-FBW-HTT1-VDD)*%
X110215000Y-85540000D03*
%TO.P,NHD,4,A0*%
%TO.N,Net-(NHD-C12864A1Z-FSW-FBW-HTT1-A0)*%
X112755000Y-85540000D03*
%TO.P,NHD,5,~{RESET}*%
%TO.N,Net-(NHD-C12864A1Z-FSW-FBW-HTT1-~{RESET})*%
X115295000Y-85540000D03*
%TO.P,NHD,6,~{CS}*%
%TO.N,Net-(NHD-C12864A1Z-FSW-FBW-HTT1-~{CS})*%
X117835000Y-85540000D03*
D18*
%TO.P,NHD,7,VSS*%
%TO.N,GND*%
X157235000Y-85540000D03*
D17*
%TO.P,NHD,8,H*%
%TO.N,unconnected-(NHD-C12864A1Z-FSW-FBW-HTT1-H-Pad8)*%
X159775000Y-85540000D03*
%TO.P,NHD,9,H*%
%TO.N,unconnected-(NHD-C12864A1Z-FSW-FBW-HTT1-H-Pad9)*%
X162315000Y-85540000D03*
%TO.P,NHD,10,LED-*%
%TO.N,GND*%
X164855000Y-85540000D03*
%TO.P,NHD,11,LED+*%
%TO.N,Net-(NHD-C12864A1Z-FSW-FBW-HTT1-LED+)*%
X167395000Y-85540000D03*
%TO.P,NHD,12,NC*%
%TO.N,unconnected-(NHD-C12864A1Z-FSW-FBW-HTT1-NC-Pad12)*%
X169935000Y-85540000D03*
%TD*%
D13*
%TO.P,R4,1*%
%TO.N,/Analog buttons*%
X161275000Y-102400000D03*
%TO.P,R4,2*%
%TO.N,Net-(R4-Pad2)*%
X164375000Y-102400000D03*
%TD*%
%TO.P,R5,1*%
%TO.N,/Analog buttons*%
X161275000Y-96225000D03*
%TO.P,R5,2*%
%TO.N,Net-(R5-Pad2)*%
X164375000Y-96225000D03*
%TD*%
D19*
%TO.P,D1,1,K*%
%TO.N,GND*%
X91475000Y-38250000D03*
D20*
%TO.P,D1,2,A*%
%TO.N,Net-(D1-A)*%
X94015000Y-38250000D03*
%TD*%
D21*
%TO.P,EM4100,1,TX*%
%TO.N,Net-(EM4100-TX)*%
X92950000Y-94525000D03*
D22*
%TO.P,EM4100,2,RX*%
%TO.N,Net-(EM4100-RX)*%
X94950000Y-94525000D03*
%TO.P,EM4100,3,VCC*%
%TO.N,VCC*%
X96950000Y-94525000D03*
%TO.P,EM4100,4,GND*%
%TO.N,GND*%
X98950000Y-94525000D03*
%TD*%
D10*
%TO.P,SW4,1,1*%
%TO.N,Net-(NHD-C12864A1Z-FSW-FBW-HTT1-VDD)*%
X142000000Y-130450000D03*
%TO.P,SW4,2,2*%
%TO.N,Net-(R3-Pad2)*%
X147000000Y-130450000D03*
%TD*%
D19*
%TO.P,D2,1,K*%
%TO.N,GND*%
X183600000Y-38200000D03*
D20*
%TO.P,D2,2,A*%
%TO.N,Net-(D2-A)*%
X181060000Y-38200000D03*
%TD*%
D23*
%TO.N,GND*%
X164375000Y-86020000D02*
X164375000Y-90825000D01*
X164855000Y-85540000D02*
X164375000Y-86020000D01*
%TO.N,Net-(BZ1-+)*%
X131000000Y-115735000D02*
X131000000Y-117400000D01*
X131000000Y-117400000D02*
X130500000Y-117900000D01*
X130500000Y-117900000D02*
X124750000Y-117900000D01*
X128200000Y-142350000D02*
X146625000Y-142350000D01*
X174650000Y-114325000D02*
X174650000Y-103975000D01*
X120075000Y-122575000D02*
X120075000Y-134225000D01*
X120075000Y-134225000D02*
X128200000Y-142350000D01*
X124750000Y-117900000D02*
X120075000Y-122575000D01*
X146625000Y-142350000D02*
X174650000Y-114325000D01*
%TO.N,Net-(D1-A)*%
X150615000Y-89150000D02*
X99215000Y-37750000D01*
X143700000Y-115735000D02*
X147290000Y-119325000D01*
X99215000Y-37750000D02*
X93365000Y-37750000D01*
X160800000Y-119325000D02*
X162375000Y-117750000D01*
X162375000Y-89903122D02*
X161621878Y-89150000D01*
X161621878Y-89150000D02*
X150615000Y-89150000D01*
X147290000Y-119325000D02*
X160800000Y-119325000D01*
X162375000Y-117750000D02*
X162375000Y-89903122D01*
%TO.N,Net-(D2-A)*%
X160950000Y-120475000D02*
X163250000Y-118175000D01*
X154725000Y-45975000D02*
X162500000Y-38200000D01*
X156575000Y-88100000D02*
X154725000Y-86250000D01*
X154725000Y-86250000D02*
X154725000Y-45975000D01*
X141160000Y-115735000D02*
X145900000Y-120475000D01*
X162500000Y-38200000D02*
X181060000Y-38200000D01*
X161900000Y-88100000D02*
X156575000Y-88100000D01*
X163250000Y-89450000D02*
X161900000Y-88100000D01*
X145900000Y-120475000D02*
X160950000Y-120475000D01*
X163250000Y-118175000D02*
X163250000Y-89450000D01*
%TO.N,Net-(EM4100-RX)*%
X117725000Y-81275000D02*
X108925000Y-81275000D01*
X125100000Y-88650000D02*
X117725000Y-81275000D01*
X107450000Y-79800000D02*
X102475000Y-79800000D01*
X100125000Y-89350000D02*
X94950000Y-94525000D01*
X136935000Y-88650000D02*
X125100000Y-88650000D01*
X108925000Y-81275000D02*
X107450000Y-79800000D01*
X102475000Y-79800000D02*
X100125000Y-82150000D01*
X141160000Y-92875000D02*
X136935000Y-88650000D01*
X100125000Y-82150000D02*
X100125000Y-89350000D01*
%TO.N,VCC*%
X115760000Y-91290000D02*
X120175000Y-86875000D01*
X103100000Y-80875000D02*
X101150000Y-82825000D01*
X108500000Y-82350000D02*
X107025000Y-80875000D01*
X117025000Y-82350000D02*
X108500000Y-82350000D01*
X120175000Y-85500000D02*
X117025000Y-82350000D01*
X101150000Y-82825000D02*
X101150000Y-90050000D01*
X101150000Y-90050000D02*
X96950000Y-94250000D01*
X96950000Y-94250000D02*
X96950000Y-94525000D01*
X120175000Y-86875000D02*
X120175000Y-85500000D01*
X107025000Y-80875000D02*
X103100000Y-80875000D01*
X115760000Y-92875000D02*
X115760000Y-91290000D01*
%TO.N,Net-(EM4100-TX)*%
X107825000Y-78750000D02*
X102125000Y-78750000D01*
X118375000Y-80275000D02*
X109350000Y-80275000D01*
X99250000Y-88225000D02*
X92950000Y-94525000D01*
X138525000Y-87700000D02*
X125800000Y-87700000D01*
X143700000Y-92875000D02*
X138525000Y-87700000D01*
X125800000Y-87700000D02*
X118375000Y-80275000D01*
X109350000Y-80275000D02*
X107825000Y-78750000D01*
X102125000Y-78750000D02*
X99250000Y-81625000D01*
X99250000Y-81625000D02*
X99250000Y-88225000D01*
%TO.N,/Analog buttons*%
X159580284Y-102500000D02*
X155665142Y-98584858D01*
X151320000Y-92875000D02*
X153370000Y-90825000D01*
X151320000Y-92875000D02*
X151320000Y-94239716D01*
X159580284Y-102500000D02*
X161275000Y-104194716D01*
X161275000Y-96225000D02*
X158025000Y-96225000D01*
X159580284Y-102500000D02*
X159680284Y-102400000D01*
X158025000Y-96225000D02*
X155665142Y-98584858D01*
X161275000Y-104194716D02*
X161275000Y-108150000D01*
X151320000Y-94239716D02*
X153380284Y-96300000D01*
X161275000Y-108150000D02*
X161275000Y-113375000D01*
X159680284Y-102400000D02*
X161275000Y-102400000D01*
X155665142Y-98584858D02*
X153380284Y-96300000D01*
X153370000Y-90825000D02*
X161275000Y-90825000D01*
%TO.N,Net-(R2-Pad2)*%
X164375000Y-118600000D02*
X164375000Y-113375000D01*
X159025000Y-123950000D02*
X164375000Y-118600000D01*
X139950000Y-123950000D02*
X140000000Y-123900000D01*
X159025000Y-123950000D02*
X139575000Y-123950000D01*
%TO.N,Net-(R3-Pad2)*%
X168000000Y-110000000D02*
X166150000Y-108150000D01*
X153750000Y-130450000D02*
X168000000Y-116200000D01*
X146625000Y-130450000D02*
X153750000Y-130450000D01*
X147050000Y-130400000D02*
X147000000Y-130450000D01*
X166150000Y-108150000D02*
X164375000Y-108150000D01*
X168000000Y-116200000D02*
X168000000Y-110000000D01*
%TO.N,Net-(R4-Pad2)*%
X164625000Y-102400000D02*
X164375000Y-102400000D01*
X168900000Y-106675000D02*
X168900000Y-116875000D01*
X148800000Y-136975000D02*
X139950000Y-136975000D01*
X139975000Y-137000000D02*
X139950000Y-136975000D01*
X168900000Y-116875000D02*
X148800000Y-136975000D01*
X168900000Y-106675000D02*
X164625000Y-102400000D01*
%TO.N,Net-(R5-Pad2)*%
X164375000Y-97300000D02*
X170725000Y-103650000D01*
X170725000Y-103650000D02*
X170725000Y-116600000D01*
X132925000Y-132425000D02*
X132925000Y-130450000D01*
X164375000Y-96225000D02*
X164375000Y-97300000D01*
X148150000Y-139175000D02*
X139675000Y-139175000D01*
X139675000Y-139175000D02*
X132925000Y-132425000D01*
X170725000Y-116600000D02*
X148150000Y-139175000D01*
%TO.N,Net-(U1-RX(DPIO3))*%
X119000000Y-134500000D02*
X119000000Y-122225000D01*
X119000000Y-122225000D02*
X123380000Y-117845000D01*
X147150000Y-143250000D02*
X127750000Y-143250000D01*
X127750000Y-143250000D02*
X119000000Y-134500000D01*
X123380000Y-117845000D02*
X123380000Y-115735000D01*
X160025000Y-130375000D02*
X147150000Y-143250000D01*
X160725000Y-130375000D02*
X160025000Y-130375000D01*
%TO.N,Net-(U1-TX(GPIO1))*%
X174810500Y-130400000D02*
X169585500Y-135625000D01*
X120840000Y-119135000D02*
X120840000Y-115735000D01*
X118100000Y-134875000D02*
X118100000Y-121875000D01*
X169585500Y-135625000D02*
X156125000Y-135625000D01*
X118100000Y-121875000D02*
X120840000Y-119135000D01*
X127350000Y-144125000D02*
X118100000Y-134875000D01*
X147625000Y-144125000D02*
X127350000Y-144125000D01*
X156125000Y-135625000D02*
X147625000Y-144125000D01*
%TO.N,Net-(NHD-C12864A1Z-FSW-FBW-HTT1-A0)*%
X112755000Y-85540000D02*
X112360000Y-85540000D01*
X134400000Y-112100000D02*
X137750000Y-112100000D01*
X107775000Y-103950000D02*
X112075000Y-108250000D01*
X107775000Y-90125000D02*
X107775000Y-103950000D01*
X130550000Y-108250000D02*
X134400000Y-112100000D01*
X112360000Y-85540000D02*
X107775000Y-90125000D01*
X145145000Y-112100000D02*
X148780000Y-115735000D01*
X112075000Y-108250000D02*
X130550000Y-108250000D01*
X137750000Y-112100000D02*
X145145000Y-112100000D01*
%TO.N,Net-(NHD-C12864A1Z-FSW-FBW-HTT1-LED+)*%
X176500000Y-130413214D02*
X170438214Y-136475000D01*
X117150000Y-135100000D02*
X117150000Y-118775000D01*
X156525000Y-136475000D02*
X147975000Y-145025000D01*
X176500000Y-94645000D02*
X176500000Y-130413214D01*
X127075000Y-145025000D02*
X117150000Y-135100000D01*
X170438214Y-136475000D02*
X156525000Y-136475000D01*
X147975000Y-145025000D02*
X127075000Y-145025000D01*
X117150000Y-118775000D02*
X115760000Y-117385000D01*
X115760000Y-117385000D02*
X115760000Y-115735000D01*
X167395000Y-85540000D02*
X176500000Y-94645000D01*
%TO.N,Net-(NHD-C12864A1Z-FSW-FBW-HTT1-SCL)*%
X111350000Y-110200000D02*
X128005000Y-110200000D01*
X105135000Y-85540000D02*
X105135000Y-103985000D01*
X128005000Y-110200000D02*
X133540000Y-115735000D01*
X105135000Y-103985000D02*
X111350000Y-110200000D01*
%TO.N,Net-(NHD-C12864A1Z-FSW-FBW-HTT1-~{CS})*%
X103350000Y-82275000D02*
X106175000Y-82275000D01*
X125920000Y-115735000D02*
X125920000Y-112645000D01*
X125920000Y-112645000D02*
X125375000Y-112100000D01*
X102425000Y-104200000D02*
X102425000Y-83200000D01*
X110325000Y-112100000D02*
X102425000Y-104200000D01*
X115945000Y-83650000D02*
X117835000Y-85540000D01*
X102425000Y-83200000D02*
X103350000Y-82275000D01*
X125375000Y-112100000D02*
X110325000Y-112100000D01*
X107550000Y-83650000D02*
X115945000Y-83650000D01*
X106175000Y-82275000D02*
X107550000Y-83650000D01*
%TO.N,Net-(NHD-C12864A1Z-FSW-FBW-HTT1-~{RESET})*%
X156850000Y-118325000D02*
X158850000Y-116325000D01*
X158850000Y-113275000D02*
X156625000Y-111050000D01*
X131750000Y-107175000D02*
X112675000Y-107175000D01*
X135625000Y-111050000D02*
X131750000Y-107175000D01*
X146240000Y-115735000D02*
X148830000Y-118325000D01*
X156625000Y-111050000D02*
X135625000Y-111050000D01*
X108750000Y-103250000D02*
X108750000Y-92085000D01*
X158850000Y-116325000D02*
X158850000Y-113275000D01*
X148830000Y-118325000D02*
X156850000Y-118325000D01*
X108750000Y-92085000D02*
X115295000Y-85540000D01*
X112675000Y-107175000D02*
X108750000Y-103250000D01*
%TO.N,Net-(NHD-C12864A1Z-FSW-FBW-HTT1-SI)*%
X103550000Y-103925000D02*
X110800000Y-111175000D01*
X104200000Y-83700000D02*
X103550000Y-84350000D01*
X110800000Y-111175000D02*
X126900000Y-111175000D01*
X103550000Y-84350000D02*
X103550000Y-103925000D01*
X105835000Y-83700000D02*
X104200000Y-83700000D01*
X128460000Y-112735000D02*
X128460000Y-115735000D01*
X107675000Y-85540000D02*
X105835000Y-83700000D01*
X126900000Y-111175000D02*
X128460000Y-112735000D01*
%TO.N,Net-(NHD-C12864A1Z-FSW-FBW-HTT1-VDD)*%
X129225000Y-109225000D02*
X133400000Y-113400000D01*
X133400000Y-113400000D02*
X136925000Y-113400000D01*
X134950000Y-136975000D02*
X128425000Y-130450000D01*
X136925000Y-113400000D02*
X138620000Y-115095000D01*
X127925000Y-130450000D02*
X134425000Y-123950000D01*
X142000000Y-130450000D02*
X141450000Y-130450000D01*
X128425000Y-130450000D02*
X127925000Y-130450000D01*
X110215000Y-85560000D02*
X106500000Y-89275000D01*
X138620000Y-115095000D02*
X138620000Y-115735000D01*
X110215000Y-85540000D02*
X110215000Y-85560000D01*
X106500000Y-104125000D02*
X111600000Y-109225000D01*
X111600000Y-109225000D02*
X129225000Y-109225000D01*
X134425000Y-123950000D02*
X134950000Y-123950000D01*
X141450000Y-130450000D02*
X134950000Y-123950000D01*
X135475000Y-136975000D02*
X134950000Y-136975000D01*
X106500000Y-89275000D02*
X106500000Y-104125000D01*
X138620000Y-115735000D02*
X138620000Y-119905000D01*
X138620000Y-120280000D02*
X134950000Y-123950000D01*
X138620000Y-119905000D02*
X138620000Y-120280000D01*
%TD*%
M02*
