%TF.GenerationSoftware,KiCad,Pcbnew,8.0.1*%
%TF.CreationDate,2024-04-24T10:41:03+02:00*%
%TF.ProjectId,PCB,5043422e-6b69-4636-9164-5f7063625858,v0.1*%
%TF.SameCoordinates,Original*%
%TF.FileFunction,Legend,Bot*%
%TF.FilePolarity,Positive*%
%FSLAX46Y46*%
G04 Gerber Fmt 4.6, Leading zero omitted, Abs format (unit mm)*
G04 Created by KiCad (PCBNEW 8.0.1) date 2024-04-24 10:41:03*
%MOMM*%
%LPD*%
G01*
G04 APERTURE LIST*
G04 Aperture macros list*
%AMRoundRect*
0 Rectangle with rounded corners*
0 $1 Rounding radius*
0 $2 $3 $4 $5 $6 $7 $8 $9 X,Y pos of 4 corners*
0 Add a 4 corners polygon primitive as box body*
4,1,4,$2,$3,$4,$5,$6,$7,$8,$9,$2,$3,0*
0 Add four circle primitives for the rounded corners*
1,1,$1+$1,$2,$3*
1,1,$1+$1,$4,$5*
1,1,$1+$1,$6,$7*
1,1,$1+$1,$8,$9*
0 Add four rect primitives between the rounded corners*
20,1,$1+$1,$2,$3,$4,$5,0*
20,1,$1+$1,$4,$5,$6,$7,0*
20,1,$1+$1,$6,$7,$8,$9,0*
20,1,$1+$1,$8,$9,$2,$3,0*%
G04 Aperture macros list end*
%ADD10C,1.712000*%
%ADD11C,3.200000*%
%ADD12C,2.134000*%
%ADD13RoundRect,0.102000X-0.965000X0.965000X-0.965000X-0.965000X0.965000X-0.965000X0.965000X0.965000X0*%
%ADD14R,2.000000X2.000000*%
%ADD15C,2.000000*%
%ADD16C,1.404000*%
%ADD17RoundRect,0.102000X-0.600000X-0.600000X0.600000X-0.600000X0.600000X0.600000X-0.600000X0.600000X0*%
%ADD18R,1.800000X1.800000*%
%ADD19C,1.800000*%
%ADD20R,1.524000X1.524000*%
%ADD21C,1.524000*%
G04 APERTURE END LIST*
%LPC*%
D10*
%TO.C,SW1*%
X160725000Y-130375000D03*
X165725000Y-130375000D03*
%TD*%
D11*
%TO.C,U1*%
X155130000Y-94145000D03*
X111950000Y-94145000D03*
X155130000Y-114465000D03*
X111950000Y-114465000D03*
D12*
X151320000Y-92875000D03*
X148780000Y-92875000D03*
X146240000Y-92875000D03*
X143700000Y-92875000D03*
X141160000Y-92875000D03*
X138620000Y-92875000D03*
X136080000Y-92875000D03*
X133540000Y-92875000D03*
X131000000Y-92875000D03*
D13*
X128460000Y-92875000D03*
D12*
X125920000Y-92875000D03*
X123380000Y-92875000D03*
X120840000Y-92875000D03*
D13*
X118300000Y-92875000D03*
D12*
X115760000Y-92875000D03*
X115760000Y-115735000D03*
D13*
X118300000Y-115735000D03*
D12*
X120840000Y-115735000D03*
X123380000Y-115735000D03*
X125920000Y-115735000D03*
X128460000Y-115735000D03*
X131000000Y-115735000D03*
X133540000Y-115735000D03*
D13*
X136080000Y-115735000D03*
D12*
X138620000Y-115735000D03*
X141160000Y-115735000D03*
X143700000Y-115735000D03*
X146240000Y-115735000D03*
X148780000Y-115735000D03*
X151320000Y-115735000D03*
%TD*%
D10*
%TO.C,SW5*%
X134950000Y-136975000D03*
X139950000Y-136975000D03*
%TD*%
%TO.C,SW2*%
X174810500Y-130400000D03*
X179810500Y-130400000D03*
%TD*%
%TO.C,SW6*%
X127925000Y-130450000D03*
X132925000Y-130450000D03*
%TD*%
%TO.C,SW3*%
X134950000Y-123950000D03*
X139950000Y-123950000D03*
%TD*%
D14*
%TO.C,BZ1*%
X174650000Y-103975000D03*
D15*
X182250000Y-103975000D03*
%TD*%
D16*
%TO.C,NHD*%
X105135000Y-85540000D03*
X107675000Y-85540000D03*
X110215000Y-85540000D03*
X112755000Y-85540000D03*
X115295000Y-85540000D03*
X117835000Y-85540000D03*
D17*
X157235000Y-85540000D03*
D16*
X159775000Y-85540000D03*
X162315000Y-85540000D03*
X164855000Y-85540000D03*
X167395000Y-85540000D03*
X169935000Y-85540000D03*
%TD*%
D18*
%TO.C,D1*%
X91475000Y-38250000D03*
D19*
X94015000Y-38250000D03*
%TD*%
D20*
%TO.C,EM4100*%
X92950000Y-94525000D03*
D21*
X94950000Y-94525000D03*
X96950000Y-94525000D03*
X98950000Y-94525000D03*
%TD*%
D10*
%TO.C,SW4*%
X142000000Y-130450000D03*
X147000000Y-130450000D03*
%TD*%
D18*
%TO.C,D2*%
X183600000Y-38200000D03*
D19*
X181060000Y-38200000D03*
%TD*%
%LPD*%
M02*
